<svg width="627" height="715" viewBox="0 0 627 715" fill="none" xmlns="http://www.w3.org/2000/svg">
<path d="M649.746 3.5C639.432 3.5 609.403 7.28045 570.64 27.8352C544.615 41.6358 526.818 64.6457 510.54 88.9021C498.079 107.471 503.699 136.384 510.54 161.575C512.901 170.269 517.311 186.335 522.21 194.573C550.258 241.735 525.16 334.559 512.925 350.602C501.634 365.408 488.469 381.105 474.258 397.011C461.109 411.728 439.842 417.531 419.478 424.024C395.98 431.516 374.001 431.822 354.478 430.361C342.929 429.496 338.781 417.785 334.333 410.021C329.88 402.247 321.422 388.575 331.489 362.97C336.341 350.63 346.224 345.461 356.285 341.919C366.549 338.306 385.043 332.075 400.609 338.922C411.75 343.822 419.18 351.949 424.838 364.107C431.055 377.468 432.016 398.821 431.673 420.884C431.317 443.841 404.728 465.008 385.043 479.377C367.378 492.272 328.453 498.854 272.646 508.016C167.19 525.329 80.5335 531.987 58.5125 545.959C41.2471 556.913 32.0726 592.042 25.2706 619.314C24.7342 626.976 24.6207 637.75 25.6578 645.324C26.6948 652.897 28.8859 656.945 31.711 662.783" stroke="#D5D5D5" stroke-width="7" stroke-dasharray="14 14"/>
<g filter="url(#filter0_d_321_112)">
<path d="M26.2654 668.344L30.5728 656.178L46.952 680.595L26.2654 668.344Z" fill="#D5D5D5" stroke="#A19F9F" stroke-width="4" stroke-linecap="round" stroke-linejoin="round"/>
<path d="M31.0558 666.95L57.3271 694.096L53.5008 658.631L31.0558 666.95Z" fill="#D5D5D5" stroke="#A19F9F" stroke-width="4" stroke-linecap="round" stroke-linejoin="round"/>
<path d="M12.0998 673.086L30.7273 666.154L57.747 694.36L12.0998 673.086Z" fill="#D5D5D5" stroke="#A19F9F" stroke-width="4" stroke-linecap="round" stroke-linejoin="round"/>
</g>
<defs>
<filter id="filter0_d_321_112" x="0" y="652.262" width="69.8467" height="62.0151" filterUnits="userSpaceOnUse" color-interpolation-filters="sRGB">
<feFlood flood-opacity="0" result="BackgroundImageFix"/>
<feColorMatrix in="SourceAlpha" type="matrix" values="0 0 0 0 0 0 0 0 0 0 0 0 0 0 0 0 0 0 127 0" result="hardAlpha"/>
<feOffset dy="8"/>
<feGaussianBlur stdDeviation="5"/>
<feComposite in2="hardAlpha" operator="out"/>
<feColorMatrix type="matrix" values="0 0 0 0 0 0 0 0 0 0 0 0 0 0 0 0 0 0 0.25 0"/>
<feBlend mode="normal" in2="BackgroundImageFix" result="effect1_dropShadow_321_112"/>
<feBlend mode="normal" in="SourceGraphic" in2="effect1_dropShadow_321_112" result="shape"/>
</filter>
</defs>
</svg>
