<svg width="560" height="406" viewBox="0 0 560 406" fill="none" xmlns="http://www.w3.org/2000/svg">
<g filter="url(#filter0_d_1_119)">
<rect x="48.9919" y="1.19702" width="116.455" height="36.8699" rx="7" transform="rotate(7.02678 48.9919 1.19702)" fill="#69232C"/>
<rect x="164.572" y="15.4432" width="116.455" height="30.9694" rx="7" transform="rotate(7.02678 164.572 15.4432)" fill="#46171C"/>
<rect x="280.152" y="29.6896" width="116.455" height="30.9694" rx="7" transform="rotate(7.02678 280.152 29.6896)" fill="#46171C"/>
<rect x="395.733" y="43.9359" width="116.455" height="30.9694" rx="7" transform="rotate(7.02678 395.733 43.9359)" fill="#46171C"/>
<rect x="46.2963" y="23.729" width="508" height="305.139" rx="9" transform="rotate(7.02678 46.2963 23.729)" fill="#69232C"/>
<path d="M79.1626 236.674L78.6281 236.752C77.4405 236.924 76.433 236.979 75.6056 236.917C74.8078 236.851 74.0733 236.593 73.4021 236.145C72.7563 235.663 72.2206 235.104 71.795 234.468C71.3992 233.828 71.0132 232.838 70.6372 231.498C70.0731 229.489 69.5415 226.762 69.0425 223.318C68.5391 219.844 68.199 217.392 68.0222 215.963C67.8751 214.529 67.7938 213.131 67.7783 211.769C67.7586 210.378 67.8498 209.334 68.0521 208.638C68.2797 207.908 68.6368 207.235 69.1235 206.618C69.6356 205.968 70.2668 205.513 71.0172 205.253C71.793 204.958 72.7748 204.725 73.9623 204.553L74.4968 204.476L79.1626 236.674ZM76.2782 204.217L81.9341 203.398C84.1015 203.084 85.7882 203.218 86.9943 203.801C88.23 204.38 88.9813 205.59 89.248 207.431L89.8288 211.439C89.9192 212.062 89.7565 212.404 89.3409 212.464L83.7295 213.278C83.3138 213.338 83.0528 213.315 82.9466 213.209C82.8403 213.103 82.7592 212.857 82.7033 212.471L82.1999 208.998C82.1311 208.523 82.0095 208.207 81.8352 208.05C81.6864 207.86 81.3447 207.803 80.8103 207.88L76.8912 208.448L76.2782 204.217ZM85.5171 225.614L91.1285 224.801C91.5441 224.74 91.7971 225.022 91.8875 225.645L92.4683 229.654C92.735 231.494 92.358 232.868 91.3374 233.773C90.3464 234.675 88.7672 235.283 86.5999 235.597L80.944 236.416L80.3309 232.185L84.25 231.617C84.7844 231.54 85.0981 231.404 85.191 231.208C85.3093 230.979 85.3341 230.627 85.2652 230.152L84.7619 226.678C84.706 226.292 84.7139 226.033 84.7858 225.902C84.8576 225.77 85.1014 225.674 85.5171 225.614ZM107.503 232.249C107.533 232.457 107.474 232.572 107.325 232.593L102.827 233.245C101.165 233.486 99.8766 233.279 98.9631 232.623C98.0793 231.963 97.5105 230.757 97.2566 229.005L93.3136 201.794L96.0303 201.401C97.3366 201.211 98.3637 201.396 99.1115 201.955C99.8847 202.479 100.344 203.246 100.491 204.256L103.924 227.948C104.057 228.869 104.326 229.36 104.729 229.423C104.95 229.482 105.238 229.486 105.594 229.434L106.708 229.273C106.945 229.238 107.079 229.325 107.109 229.533L107.503 232.249ZM107.411 209.891L110.127 209.498C111.434 209.309 112.461 209.493 113.209 210.052C113.982 210.576 114.442 211.343 114.588 212.353L117.311 231.146L112.234 231.882C111.759 231.951 111.35 231.844 111.005 231.56C110.661 231.276 110.45 230.867 110.373 230.333L107.411 209.891ZM106.348 200.36C106.627 199.986 107.554 199.685 109.127 199.457C110.701 199.229 111.674 199.255 112.048 199.534C112.418 199.784 112.71 200.651 112.925 202.135C113.141 203.62 113.094 204.551 112.785 204.929C112.505 205.303 111.594 205.602 110.05 205.826C108.506 206.05 107.532 206.024 107.129 205.749C106.755 205.47 106.46 204.588 106.245 203.103C106.03 201.619 106.064 200.705 106.348 200.36ZM129.008 229.451L128.919 229.464C125.98 229.89 124.096 229.648 123.266 228.737C122.871 228.31 122.537 227.888 122.265 227.473C122.022 227.053 121.802 226.373 121.605 225.431C121.207 223.731 120.855 221.827 120.55 219.719C120.245 217.611 120.04 216.094 119.936 215.17C119.828 214.215 119.78 213.252 119.791 212.281C119.827 211.275 119.948 210.545 120.155 210.091C120.358 209.607 120.701 209.148 121.183 208.714C121.666 208.28 122.257 207.967 122.957 207.775C123.652 207.553 124.564 207.36 125.692 207.197L125.782 207.184L129.008 229.451ZM133.155 221.666C135.144 221.378 136.658 221.159 137.697 221.008C138.736 220.857 139.273 220.795 139.307 220.82C139.337 220.816 139.383 220.824 139.447 220.845C139.536 220.833 139.598 220.839 139.632 220.864C139.666 220.89 139.702 220.93 139.74 220.985C139.774 221.01 139.797 221.067 139.81 221.157C139.9 221.356 139.953 221.515 139.97 221.633L140.164 222.97C140.624 226.146 139.236 227.969 136 228.438L130.389 229.251L129.905 225.911L132.31 225.563C132.933 225.472 133.306 225.327 133.429 225.128C133.547 224.898 133.57 224.531 133.497 224.027L133.155 221.666ZM127.162 206.984L132.773 206.171C136.01 205.702 137.858 207.056 138.318 210.233L138.757 213.261C136.768 213.549 135.254 213.769 134.215 213.919C133.175 214.07 132.641 214.147 132.611 214.152C132.577 214.126 132.516 214.12 132.427 214.133C132.363 214.112 132.314 214.088 132.28 214.063C132.246 214.038 132.212 214.012 132.178 213.987C132.14 213.932 132.116 213.875 132.108 213.815C132.014 213.586 131.959 213.412 131.941 213.294L131.625 211.112C131.552 210.607 131.428 210.276 131.254 210.119C131.075 209.933 130.674 209.885 130.051 209.976L127.646 210.324L127.162 206.984ZM140.671 194.887L143.388 194.493C144.694 194.304 145.721 194.488 146.469 195.047C147.242 195.571 147.702 196.338 147.848 197.348L152.017 226.117L146.94 226.853C146.465 226.922 146.055 226.814 145.711 226.531C145.367 226.247 145.156 225.838 145.079 225.304L140.671 194.887ZM155.896 215.233L160.973 214.498C161.448 214.429 161.858 214.536 162.202 214.82C162.546 215.103 162.757 215.512 162.835 216.047L164.041 224.375L158.965 225.111C158.489 225.179 158.08 225.072 157.736 224.788C157.391 224.505 157.181 224.096 157.103 223.561L155.896 215.233ZM160.369 202.172L161.26 208.318C161.72 211.495 160.332 213.317 157.096 213.786L151.485 214.6L151.001 211.259L153.406 210.911C154.029 210.821 154.402 210.676 154.525 210.476C154.643 210.247 154.666 209.88 154.593 209.375L153.954 204.966C153.777 203.749 154.224 203.063 155.292 202.908L160.369 202.172ZM182.656 198.943L186.976 198.317C188.104 198.153 189.033 198.079 189.763 198.095C190.488 198.08 191.144 198.213 191.73 198.492C192.316 198.77 192.775 199.113 193.106 199.52C193.434 199.897 193.741 200.549 194.027 201.478C194.458 202.78 194.848 204.633 195.196 207.038C195.545 209.443 195.766 211.078 195.862 211.943C195.952 212.779 196.022 213.678 196.071 214.641C196.149 215.6 196.116 216.317 195.973 216.792C195.86 217.263 195.674 217.76 195.416 218.282C195.184 218.771 194.828 219.141 194.349 219.392C193.307 219.937 191.924 220.334 190.202 220.584L190.113 220.597L187.68 203.807C187.672 203.748 187.646 203.57 187.603 203.273C187.56 202.976 187.508 202.726 187.449 202.522C187.218 201.98 186.584 201.784 185.545 201.934L183.14 202.283L182.656 198.943ZM181.32 199.136L183.753 215.926C183.761 215.985 183.787 216.163 183.83 216.46C183.873 216.757 183.939 217.005 184.029 217.204C184.229 217.751 184.849 217.949 185.888 217.799L188.293 217.45L188.777 220.79L184.457 221.416C183.329 221.58 182.402 221.669 181.677 221.683C180.947 221.667 180.289 221.52 179.703 221.241C179.117 220.963 178.66 220.635 178.333 220.258C178.001 219.851 177.677 219.186 177.361 218.261C176.96 216.956 176.585 215.1 176.237 212.695C175.888 210.29 175.668 208.67 175.578 207.834C175.483 206.969 175.396 206.057 175.318 205.098C175.269 204.136 175.302 203.418 175.415 202.947C175.558 202.472 175.746 201.99 175.979 201.502C176.236 200.979 176.605 200.592 177.084 200.341C178.126 199.796 179.509 199.399 181.231 199.149L181.32 199.136ZM206.442 195.496L212.677 194.592C215.913 194.123 217.761 195.477 218.222 198.654L220.758 216.156L215.681 216.892C215.206 216.961 214.796 216.853 214.452 216.57C214.108 216.286 213.897 215.877 213.82 215.343L211.529 199.533C211.46 199.058 211.292 198.734 211.024 198.56C210.786 198.383 210.281 198.35 209.509 198.462L206.926 198.836L206.442 195.496ZM198.649 196.625L201.365 196.231C202.672 196.042 203.699 196.227 204.446 196.785C205.22 197.31 205.679 198.077 205.826 199.086L208.555 217.924L203.478 218.66C203.003 218.729 202.594 218.622 202.25 218.338C201.905 218.054 201.695 217.646 201.617 217.111L198.649 196.625ZM232.43 214.465L232.341 214.478C229.402 214.904 227.517 214.661 226.688 213.751C226.293 213.323 225.959 212.902 225.687 212.487C225.444 212.067 225.224 211.386 225.027 210.445C224.629 208.745 224.277 206.84 223.972 204.732C223.666 202.624 223.462 201.108 223.358 200.183C223.25 199.229 223.202 198.266 223.212 197.294C223.248 196.289 223.37 195.559 223.577 195.104C223.78 194.62 224.122 194.161 224.605 193.728C225.088 193.294 225.679 192.981 226.379 192.789C227.074 192.567 227.986 192.374 229.114 192.21L229.203 192.197L232.43 214.465ZM243.257 205.712L243.586 207.983C244.046 211.16 242.658 212.983 239.422 213.452L233.811 214.265L233.327 210.925L235.731 210.576C236.355 210.486 236.728 210.341 236.851 210.141C236.969 209.912 236.992 209.545 236.918 209.04L236.712 207.615C236.647 207.17 236.655 206.911 236.736 206.839C236.846 206.762 236.916 206.722 236.946 206.717C236.971 206.683 237.043 206.658 237.162 206.64C237.306 206.589 237.408 206.559 237.467 206.551C239.397 206.271 241.327 205.991 243.257 205.712ZM230.584 191.997L235.75 191.249C237.799 190.952 239.252 191.151 240.11 191.845C240.969 192.539 241.512 193.673 241.74 195.246L242.308 199.165C242.695 201.837 241.434 203.384 238.524 203.806L231.978 204.754L231.494 201.414L233.899 201.066C234.611 200.963 235.073 200.805 235.285 200.592C235.526 200.375 235.611 200.014 235.537 199.51L235.047 196.125C234.974 195.62 234.85 195.29 234.676 195.133C234.497 194.947 234.096 194.899 233.473 194.989L231.068 195.338L230.584 191.997ZM262.853 187.321L267.173 186.695C268.301 186.532 269.23 186.458 269.96 186.473C270.686 186.459 271.341 186.592 271.927 186.87C272.513 187.149 272.972 187.492 273.304 187.899C273.631 188.276 273.938 188.928 274.224 189.857C274.655 191.158 275.045 193.012 275.394 195.417C275.742 197.822 275.964 199.457 276.059 200.322C276.15 201.158 276.22 202.057 276.268 203.02C276.346 203.979 276.314 204.696 276.171 205.171C276.057 205.642 275.871 206.139 275.614 206.661C275.381 207.15 275.026 207.52 274.547 207.771C273.504 208.316 272.122 208.713 270.4 208.963L270.311 208.976L267.878 192.186C267.869 192.127 267.843 191.949 267.8 191.652C267.757 191.355 267.706 191.105 267.646 190.901C267.416 190.358 266.781 190.162 265.742 190.313L263.337 190.661L262.853 187.321ZM261.517 187.515L263.95 204.305C263.959 204.364 263.984 204.542 264.028 204.839C264.071 205.136 264.137 205.384 264.226 205.583C264.427 206.13 265.047 206.328 266.086 206.178L268.491 205.829L268.975 209.169L264.655 209.795C263.527 209.959 262.6 210.048 261.874 210.062C261.144 210.046 260.487 209.899 259.901 209.62C259.314 209.341 258.858 209.014 258.53 208.637C258.199 208.23 257.875 207.565 257.559 206.64C257.158 205.334 256.783 203.479 256.434 201.074C256.086 198.669 255.866 197.049 255.775 196.213C255.68 195.348 255.593 194.436 255.515 193.477C255.467 192.514 255.499 191.797 255.613 191.326C255.756 190.851 255.944 190.369 256.176 189.88C256.434 189.358 256.802 188.971 257.281 188.72C258.324 188.175 259.706 187.777 261.428 187.528L261.517 187.515ZM285.112 173.956L289.387 173.337C289.569 173.341 289.676 173.446 289.706 173.654L290.099 176.371C290.129 176.579 290.026 176.7 289.788 176.734L287.962 176.999C286.715 177.18 286.171 177.819 286.331 178.918L290.267 206.084L287.551 206.478C286.244 206.667 285.202 206.484 284.425 205.93C283.677 205.372 283.23 204.588 283.084 203.578L280.857 188.214L278.586 188.543C277.844 188.65 277.408 188.259 277.279 187.368L276.976 185.275L280.36 184.784L279.767 180.687C279.452 178.52 279.723 176.935 280.578 175.932C281.433 174.929 282.944 174.27 285.112 173.956ZM291.138 183.223L291.441 185.316C291.57 186.207 291.263 186.706 290.521 186.813L288.517 187.104L288.02 183.675L291.138 183.223ZM322.629 178.66L328.685 177.782C331.922 177.313 333.77 178.667 334.23 181.844L336.766 199.346L331.689 200.082C331.214 200.15 330.805 200.043 330.461 199.759C330.116 199.476 329.906 199.067 329.828 198.532L327.537 182.723C327.468 182.248 327.3 181.923 327.032 181.75C326.794 181.572 326.29 181.539 325.518 181.651L323.113 182L322.629 178.66ZM302.766 181.538L305.483 181.144C306.789 180.955 307.816 181.139 308.564 181.698C309.337 182.222 309.797 182.989 309.943 183.999L312.673 202.837L307.596 203.573C307.121 203.642 306.711 203.534 306.367 203.251C306.023 202.967 305.812 202.558 305.735 202.024L302.766 181.538ZM310.56 180.408L316.617 179.531C319.853 179.062 321.701 180.416 322.161 183.593L324.698 201.095L319.621 201.83C319.145 201.899 318.736 201.792 318.392 201.508C318.047 201.225 317.837 200.816 317.759 200.281L315.468 184.471C315.399 183.996 315.231 183.672 314.963 183.499C314.726 183.321 314.221 183.288 313.449 183.4L311.044 183.749L310.56 180.408ZM338.514 176.358L343.591 175.622C344.066 175.553 344.475 175.661 344.82 175.944C345.164 176.228 345.375 176.637 345.452 177.171L347.743 192.981C347.812 193.456 347.965 193.782 348.203 193.96C348.471 194.133 348.991 194.164 349.763 194.052L352.167 193.704L352.651 197.044L346.595 197.922C343.359 198.391 341.51 197.037 341.05 193.86L338.514 176.358ZM349.279 200.443L349.621 202.803C349.694 203.308 349.818 203.639 349.992 203.795C350.171 203.982 350.572 204.029 351.195 203.939L353.6 203.591L354.084 206.931L348.473 207.744C345.237 208.213 343.388 206.859 342.928 203.682L342.734 202.346C342.67 201.901 342.678 201.642 342.758 201.57C342.868 201.493 342.936 201.438 342.962 201.404C342.991 201.399 343.063 201.374 343.178 201.327C343.326 201.305 343.43 201.29 343.49 201.282C345.419 201.002 347.349 200.722 349.279 200.443ZM350.761 174.583L353.477 174.189C354.784 174 355.811 174.185 356.559 174.743C357.332 175.268 357.792 176.035 357.938 177.044L361.61 202.385C361.756 203.394 361.533 204.26 360.941 204.982C360.382 205.73 359.45 206.199 358.143 206.388L355.427 206.782L350.761 174.583ZM385.621 191.903C385.647 192.081 385.575 192.213 385.405 192.298L382.021 192.788C379.853 193.102 378.218 192.9 377.113 192.181C376.008 191.462 375.299 190.019 374.985 187.851L373.101 174.847L370.829 175.176C370.087 175.284 369.652 174.892 369.522 174.001L369.219 171.908L372.604 171.418L371.165 161.487L373.881 161.093C375.188 160.904 376.215 161.088 376.963 161.647C377.74 162.201 378.202 162.983 378.348 163.992L381.781 187.685C381.941 188.783 382.644 189.242 383.891 189.062L384.826 188.926C385.063 188.892 385.197 188.978 385.227 189.186L385.621 191.903ZM383.827 169.792L384.13 171.885C384.259 172.775 383.952 173.275 383.21 173.382L380.894 173.718L380.397 170.288L383.827 169.792ZM398.053 171.14L395.649 171.489C394.728 171.622 394.232 171.861 394.161 172.204C394.039 172.616 394.029 173.178 394.132 173.891L395.772 185.203C395.78 185.262 395.806 185.44 395.849 185.737C395.892 186.034 395.958 186.282 396.048 186.481C396.248 187.028 396.868 187.227 397.907 187.076L400.312 186.727L400.796 190.068L396.476 190.694C395.348 190.857 394.421 190.946 393.696 190.96C392.966 190.945 392.308 190.797 391.722 190.519C391.136 190.24 390.679 189.912 390.352 189.535C390.02 189.128 389.696 188.463 389.38 187.539C388.979 186.233 388.604 184.377 388.256 181.972C387.907 179.567 387.687 177.947 387.597 177.112C387.502 176.246 387.415 175.334 387.337 174.376C387.288 173.413 387.321 172.696 387.434 172.224C387.577 171.749 387.765 171.267 387.998 170.779C388.255 170.256 388.624 169.869 389.103 169.618C390.145 169.073 391.528 168.676 393.25 168.426L397.569 167.8L398.053 171.14ZM410.771 188.304C410.801 188.512 410.757 188.624 410.638 188.641L406.986 189.171C405.324 189.411 404.036 189.204 403.122 188.548C402.238 187.888 401.67 186.682 401.416 184.931L398.905 167.607L400.731 167.342C402.602 167.071 403.943 167.331 404.755 168.123C405.563 168.885 406.07 169.979 406.276 171.404L408.083 183.874C408.217 184.794 408.485 185.286 408.888 185.348C409.109 185.407 409.397 185.411 409.753 185.359L409.976 185.327C410.214 185.293 410.347 185.379 410.378 185.587L410.771 188.304ZM420.965 187.145L418.248 187.539C416.942 187.728 415.902 187.56 415.129 187.036C414.381 186.477 413.934 185.693 413.788 184.684L410.116 159.343C409.969 158.334 410.178 157.47 410.741 156.752C411.329 156 412.276 155.529 413.582 155.34L416.299 154.946L420.965 187.145ZM419.074 164.684L423.394 164.058C424.522 163.895 425.451 163.821 426.181 163.836C426.906 163.822 427.562 163.954 428.148 164.233C428.734 164.512 429.193 164.855 429.525 165.261C429.852 165.638 430.174 166.289 430.49 167.213C430.891 168.519 431.266 170.374 431.615 172.779C431.963 175.184 432.185 176.819 432.28 177.685C432.371 178.52 432.441 179.419 432.489 180.382C432.567 181.341 432.535 182.058 432.392 182.534C432.278 183.005 432.092 183.502 431.835 184.024C431.602 184.512 431.247 184.882 430.768 185.133C429.725 185.679 428.343 186.076 426.621 186.325L422.301 186.951L421.817 183.611L424.222 183.263C424.994 183.151 425.469 182.976 425.646 182.738C425.854 182.496 425.925 182.152 425.861 181.707L423.983 168.747C423.914 168.272 423.746 167.948 423.478 167.774C423.24 167.597 422.735 167.564 421.963 167.676L419.558 168.024L419.074 164.684ZM441.167 161.483L442.348 169.632C442.421 170.137 442.547 170.483 442.726 170.669C442.9 170.826 443.299 170.859 443.922 170.768L446.416 170.407L446.9 173.747L441.2 174.573C437.964 175.042 436.115 173.688 435.655 170.511L435.203 167.394C434.919 165.434 435.22 164.057 436.105 163.262C437.016 162.433 438.703 161.84 441.167 161.483ZM443.463 176.701L443.805 179.061C443.879 179.566 444.004 179.911 444.183 180.097C444.357 180.254 444.756 180.287 445.38 180.197L447.785 179.848L448.269 183.189L442.657 184.002C439.421 184.471 437.573 183.117 437.112 179.94L436.919 178.604C436.854 178.158 436.862 177.9 436.943 177.827C437.053 177.751 437.123 177.71 437.152 177.706C437.178 177.672 437.25 177.646 437.369 177.629C437.513 177.578 437.6 177.55 437.629 177.546C439.589 177.262 441.534 176.98 443.463 176.701ZM447.752 170.213L449.578 169.949C452.815 169.48 454.663 170.834 455.123 174.011L455.568 177.084C455.852 179.043 455.539 180.437 454.629 181.267C453.744 182.062 452.069 182.638 449.605 182.995L447.752 170.213ZM442.503 161.289L448.115 160.476C451.351 160.007 453.199 161.361 453.66 164.538L453.995 166.853C452.006 167.142 450.492 167.361 449.453 167.512C448.413 167.662 447.879 167.74 447.849 167.744C447.815 167.719 447.754 167.712 447.665 167.725C447.601 167.704 447.552 167.681 447.518 167.656C447.484 167.63 447.45 167.605 447.416 167.579C447.378 167.524 447.354 167.467 447.346 167.408C447.252 167.179 447.197 167.005 447.179 166.886L446.966 165.417C446.893 164.912 446.77 164.581 446.595 164.425C446.417 164.238 446.016 164.19 445.392 164.281L442.987 164.629L442.503 161.289ZM466.98 168.655L461.859 169.397C460.849 169.543 460.243 169.54 460.039 169.388C459.864 169.231 459.702 168.633 459.551 167.594L457.164 151.116C457.013 150.077 456.999 149.458 457.122 149.258C457.274 149.054 457.84 148.881 458.82 148.739L463.986 147.991L466.98 168.655ZM468.46 179.808C468.512 180.164 468.33 180.372 467.914 180.433C466.073 180.699 464.618 180.91 463.55 181.065C462.51 181.216 461.957 181.266 461.889 181.215C461.821 181.164 461.755 181.022 461.691 180.789L460.858 175.044C460.854 174.802 460.877 174.647 460.927 174.579C460.978 174.511 461.122 174.46 461.36 174.426C463.23 174.155 465.086 173.886 466.927 173.619C467.342 173.559 467.576 173.707 467.628 174.063L468.46 179.808Z" fill="#D5D5D5"/>
</g>
<defs>
<filter id="filter0_d_1_119" x="0" y="0" width="559.448" height="405.689" filterUnits="userSpaceOnUse" color-interpolation-filters="sRGB">
<feFlood flood-opacity="0" result="BackgroundImageFix"/>
<feColorMatrix in="SourceAlpha" type="matrix" values="0 0 0 0 0 0 0 0 0 0 0 0 0 0 0 0 0 0 127 0" result="hardAlpha"/>
<feOffset dy="8"/>
<feGaussianBlur stdDeviation="5"/>
<feComposite in2="hardAlpha" operator="out"/>
<feColorMatrix type="matrix" values="0 0 0 0 0 0 0 0 0 0 0 0 0 0 0 0 0 0 0.25 0"/>
<feBlend mode="normal" in2="BackgroundImageFix" result="effect1_dropShadow_1_119"/>
<feBlend mode="normal" in="SourceGraphic" in2="effect1_dropShadow_1_119" result="shape"/>
</filter>
</defs>
</svg>
