<svg width="82" height="38" viewBox="0 0 82 38" fill="none" xmlns="http://www.w3.org/2000/svg">
<rect x="1.5" y="1.5" width="78.0181" height="34.0977" fill="#A7777D" fill-opacity="0.14" stroke="#69232C" stroke-width="3" stroke-linecap="round" stroke-dasharray="6 6"/>
<path d="M15.2955 14.6798L15.249 17.0347L15.849 17.0347C16.2591 17.0247 16.6241 17.0197 16.9441 17.0197C17.2641 17.0197 17.6191 17.0247 18.009 17.0347L18.084 17.0347C18.204 17.0347 18.319 17.0397 18.4289 17.0497C18.5489 17.0497 18.6639 17.0497 18.7739 17.0497C18.8938 17.0597 19.0087 17.0797 19.1185 17.1097C19.2284 17.1297 19.3382 17.1547 19.448 17.1847C19.6176 17.2447 19.7569 17.3347 19.8661 17.4547C19.9652 17.5847 20.0142 17.7297 20.013 17.8897C20.0127 17.9397 20.0123 17.9997 20.0118 18.0697C20.0114 18.1297 20.001 18.1847 19.9806 18.2347C19.9598 18.3447 19.8941 18.4447 19.7835 18.5347C19.733 18.6047 19.6377 18.6547 19.4975 18.6847C19.3672 18.7247 19.237 18.7497 19.1069 18.7597C18.9667 18.7897 18.8266 18.8047 18.6866 18.8047L17.9816 18.8047L15.2065 18.8197L15.1559 21.7596L18.1407 21.7896L18.8457 21.7896C18.9257 21.7896 19.0007 21.7896 19.0707 21.7896C19.1407 21.7896 19.2057 21.7946 19.2656 21.8046C19.3455 21.8246 19.4154 21.8396 19.4753 21.8496C19.5453 21.8496 19.6102 21.8596 19.6701 21.8796C19.7898 21.9196 19.8894 21.9746 19.9689 22.0446C20.0682 22.1446 20.1325 22.2496 20.1617 22.3596C20.1714 22.4096 20.176 22.4646 20.1756 22.5246C20.1852 22.5746 20.1848 22.6296 20.1744 22.6896C20.1733 22.8496 20.1223 22.9946 20.0214 23.1246C19.9004 23.2646 19.7598 23.3546 19.5995 23.3946C19.3888 23.4846 19.1585 23.5296 18.9085 23.5296C18.7985 23.5396 18.6834 23.5446 18.5634 23.5446C18.4434 23.5446 18.3284 23.5496 18.2183 23.5596L18.1283 23.5596C17.3482 23.5796 16.5382 23.5796 15.6983 23.5596C15.4983 23.5596 15.3384 23.5546 15.2184 23.5446C15.0984 23.5446 14.9884 23.5446 14.8884 23.5446C14.7984 23.5446 14.7034 23.5446 14.6034 23.5446C14.5034 23.5446 14.3734 23.5446 14.2134 23.5446C13.9833 23.5646 13.7936 23.5246 13.6443 23.4246C13.5348 23.3546 13.4504 23.2596 13.3913 23.1396C13.3615 23.1096 13.3467 23.0796 13.3469 23.0496C13.337 23.0296 13.3271 23.0146 13.3172 23.0046C13.3073 22.9946 13.2974 22.9796 13.2875 22.9596C13.2679 22.9096 13.2532 22.8596 13.2436 22.8096C13.234 22.7496 13.2294 22.6946 13.2297 22.6446C13.2201 22.5946 13.2104 22.5446 13.2008 22.4946C13.2011 22.4446 13.1965 22.3946 13.1868 22.3446L13.1885 22.1046C13.1888 22.0646 13.1891 22.0246 13.1894 21.9846C13.1996 21.9446 13.2049 21.9046 13.2052 21.8646L13.2134 20.6947L13.2585 18.5347L13.2725 16.5398C13.275 16.1798 13.2773 15.8598 13.2792 15.5798C13.2912 15.2998 13.3033 14.9948 13.3156 14.6648L13.3161 14.5898C13.3269 14.4798 13.3326 14.3798 13.3333 14.2898C13.344 14.1898 13.3497 14.0898 13.3504 13.9898C13.3618 13.7898 13.4181 13.5948 13.5194 13.4048C13.56 13.3248 13.6005 13.2548 13.6409 13.1948C13.6913 13.1348 13.7567 13.0848 13.837 13.0448C13.9876 12.9548 14.1429 12.9098 14.3029 12.9098C14.3829 12.9098 14.4429 12.9148 14.4828 12.9248L14.4829 12.9098C14.6629 12.9098 14.8079 12.9098 14.9179 12.9098C15.0279 12.9098 15.1329 12.9098 15.2329 12.9098C15.3429 12.9098 15.4579 12.9098 15.5779 12.9098C15.698 12.8998 15.863 12.8948 16.073 12.8948C16.4731 12.8848 16.8531 12.8798 17.2131 12.8798C17.5731 12.8798 17.9431 12.8848 18.323 12.8948L18.383 12.8948C18.493 12.9048 18.6079 12.9098 18.7279 12.9098C18.8479 12.9098 18.9629 12.9148 19.0728 12.9248C19.1828 12.9248 19.2927 12.9398 19.4025 12.9698C19.5124 12.9898 19.6221 13.0198 19.7319 13.0598C19.9015 13.1098 20.0409 13.1948 20.1501 13.3148C20.2391 13.4548 20.2831 13.5948 20.2821 13.7348C20.2817 13.7948 20.2813 13.8548 20.2809 13.9148C20.2805 13.9648 20.2702 14.0148 20.2498 14.0648C20.2391 14.1648 20.1784 14.2698 20.0676 14.3798C20.0275 14.3998 19.9823 14.4248 19.9321 14.4548C19.8919 14.4848 19.8417 14.5098 19.7816 14.5298C19.7214 14.5498 19.6563 14.5648 19.5863 14.5748C19.5263 14.5748 19.4662 14.5798 19.4061 14.5898C19.326 14.6098 19.2509 14.6198 19.1809 14.6198C19.1209 14.6198 19.0509 14.6198 18.9709 14.6198L18.2959 14.6198L15.2958 14.6348L15.2955 14.6798ZM23.4146 22.2996C23.4042 22.3496 23.3939 22.3996 23.3835 22.4496C23.3832 22.4896 23.3829 22.5346 23.3826 22.5846L23.2904 22.8996C23.2701 22.9396 23.2549 22.9646 23.2448 22.9746L23.1992 23.0646C23.1484 23.1746 23.0578 23.2646 22.9273 23.3346C22.6865 23.4546 22.4313 23.4846 22.1617 23.4246C21.9918 23.4046 21.8572 23.3546 21.7577 23.2746C21.6582 23.2046 21.5888 23.1196 21.5495 23.0196C21.5102 22.9196 21.4809 22.8196 21.4616 22.7196C21.4323 22.6196 21.418 22.5296 21.4185 22.4496L21.4774 14.0498C21.4778 13.9798 21.4783 13.9198 21.4786 13.8698C21.489 13.8098 21.4994 13.7548 21.5098 13.7048C21.5203 13.6348 21.5307 13.5748 21.541 13.5248C21.5614 13.4748 21.5818 13.4198 21.6022 13.3598C21.6329 13.2598 21.6884 13.1798 21.7689 13.1198C21.8895 13.0298 22.0048 12.9798 22.1149 12.9698C22.1851 12.9498 22.2501 12.9398 22.3101 12.9398C22.3702 12.9298 22.4402 12.9248 22.5202 12.9248C22.6602 12.9248 22.82 12.9648 22.9994 13.0448C23.1388 13.1248 23.2381 13.2348 23.2971 13.3748C23.3957 13.5748 23.4444 13.7598 23.4432 13.9298C23.4525 14.0298 23.4564 14.1798 23.455 14.3798C23.4636 14.5798 23.4676 14.7298 23.4669 14.8298L23.4665 14.8898C23.4842 15.2098 23.4921 15.5198 23.49 15.8198C23.4879 16.1098 23.4807 16.4298 23.4682 16.7797C23.4658 17.1197 23.4585 17.4497 23.4463 17.7697C23.4441 18.0797 23.442 18.3897 23.4398 18.6997L23.4177 21.8496C23.4174 21.8896 23.4172 21.9296 23.4169 21.9696C23.4267 21.9996 23.4314 22.0346 23.4311 22.0746C23.4304 22.1746 23.4249 22.2496 23.4146 22.2996ZM29.8382 21.4446C29.9584 21.4146 30.0786 21.3946 30.1986 21.3846C30.3287 21.3746 30.4436 21.3896 30.5433 21.4296C30.653 21.4696 30.7425 21.5396 30.8118 21.6396C30.8812 21.7296 30.9153 21.8596 30.9141 22.0296C30.9133 22.1496 30.8825 22.2646 30.8217 22.3746C30.7609 22.4846 30.6852 22.5846 30.5946 22.6746C30.504 22.7646 30.4034 22.8446 30.2929 22.9146C30.1825 22.9746 30.0771 23.0246 29.9769 23.0646C29.686 23.1946 29.3503 23.2946 28.9698 23.3646C28.5993 23.4346 28.2141 23.4596 27.8142 23.4396C27.2744 23.4196 26.7551 23.3146 26.2564 23.1246C25.7678 22.9246 25.3851 22.5996 25.1083 22.1496C24.8514 21.7096 24.6998 21.2196 24.6536 20.6797C24.6074 20.1397 24.6359 19.6297 24.7393 19.1497C24.8533 18.5697 25.0416 18.0997 25.3042 17.7397C25.5768 17.3697 25.8988 17.0747 26.2704 16.8547C26.7222 16.5948 27.2281 16.4598 27.7882 16.4498C28.3483 16.4398 28.8825 16.5498 29.3909 16.7797C29.7298 16.9297 30.0334 17.1347 30.3016 17.3947C30.5698 17.6447 30.7727 17.9497 30.9102 18.3097C30.9495 18.3997 30.9788 18.5097 30.9979 18.6397C31.0269 18.7697 31.046 18.9097 31.0549 19.0597C31.0639 19.1997 31.063 19.3397 31.052 19.4797C31.041 19.6197 31.0151 19.7447 30.9743 19.8547C30.9131 20.0347 30.8371 20.1747 30.7464 20.2747C30.6557 20.3747 30.5402 20.4497 30.3998 20.4997C30.2595 20.5497 30.0892 20.5847 29.8891 20.6047C29.699 20.6147 29.469 20.6247 29.1989 20.6347C28.9588 20.6447 28.7338 20.6497 28.5238 20.6497C28.3138 20.6497 28.0988 20.6497 27.8788 20.6497C27.6589 20.6397 27.4289 20.6347 27.1889 20.6347C26.959 20.6247 26.699 20.6147 26.4091 20.6047C26.3777 20.8046 26.4015 20.9796 26.4804 21.1296C26.5694 21.2696 26.6886 21.3896 26.8379 21.4896C26.9873 21.5796 27.1568 21.6496 27.3464 21.6996C27.5361 21.7496 27.7209 21.7796 27.9008 21.7896C28.2407 21.8096 28.5658 21.7846 28.8763 21.7146C29.1869 21.6346 29.5075 21.5446 29.8382 21.4446ZM29.2136 18.5347C29.0251 18.3147 28.8263 18.1547 28.617 18.0547C28.4574 17.9847 28.2877 17.9547 28.1076 17.9647C27.9376 17.9647 27.7724 17.9897 27.6121 18.0397C27.3216 18.1097 27.0755 18.2597 26.8739 18.4897C26.8538 18.5097 26.8184 18.5597 26.7679 18.6397C26.7174 18.7097 26.6668 18.7847 26.6163 18.8647C26.5757 18.9447 26.5452 19.0197 26.5247 19.0897C26.5042 19.1597 26.514 19.1947 26.554 19.1947L29.494 19.1947C29.485 19.0547 29.4608 18.9397 29.4214 18.8497C29.3821 18.7497 29.3128 18.6447 29.2136 18.5347ZM37.8568 17.7247C37.9358 17.8647 37.9748 18.0147 37.9737 18.1747C37.9825 18.3347 37.9465 18.4847 37.8655 18.6247C37.7742 18.8047 37.6434 18.9297 37.4729 18.9997C37.3125 19.0597 37.1324 19.0647 36.9328 19.0147C36.8429 18.9947 36.7632 18.9597 36.6935 18.9097C36.6239 18.8597 36.5492 18.8097 36.4696 18.7597C36.4 18.6997 36.3154 18.6447 36.2157 18.5947C36.1261 18.5447 36.0063 18.5097 35.8564 18.4897C35.7066 18.4697 35.5416 18.4697 35.3614 18.4897C35.1913 18.5097 35.036 18.5497 34.8956 18.6097C34.6748 18.7197 34.4986 18.8897 34.367 19.1197C34.2355 19.3397 34.1488 19.5797 34.107 19.8397C34.0652 20.0897 34.0685 20.3447 34.1166 20.6047C34.1748 20.8646 34.2833 21.0846 34.442 21.2646C34.561 21.4046 34.7152 21.5196 34.9046 21.6096C35.104 21.6996 35.2936 21.7546 35.4734 21.7746C35.6433 21.7946 35.8133 21.7946 35.9834 21.7746C36.1536 21.7446 36.3189 21.7046 36.4793 21.6546C36.5996 21.6046 36.7351 21.5396 36.8856 21.4596C37.0363 21.3696 37.1817 21.3146 37.3218 21.2946C37.5018 21.2946 37.6415 21.3446 37.7408 21.4446C37.8401 21.5346 37.9093 21.6496 37.9483 21.7896C37.9874 21.9196 37.9914 22.0596 37.9604 22.2096C37.9393 22.3596 37.8834 22.4896 37.7927 22.5996C37.6716 22.7496 37.5006 22.8946 37.2796 23.0346C37.0587 23.1646 36.848 23.2596 36.6476 23.3196C36.4071 23.3996 36.1367 23.4446 35.8367 23.4546C35.5466 23.4646 35.2717 23.4546 35.0119 23.4246C34.892 23.4046 34.7672 23.3796 34.6374 23.3496C34.5076 23.3196 34.3829 23.2846 34.2631 23.2446C33.8243 23.0846 33.4558 22.8596 33.1579 22.5696C32.87 22.2696 32.6473 21.9346 32.4899 21.5646C32.3425 21.1946 32.2603 20.7996 32.2432 20.3797C32.2262 19.9597 32.2791 19.5447 32.4019 19.1347C32.5147 18.7447 32.652 18.4147 32.8139 18.1447C32.9858 17.8747 33.1823 17.6547 33.4035 17.4847C33.6347 17.3047 33.8907 17.1647 34.1714 17.0647C34.4522 16.9547 34.7629 16.8597 35.1034 16.7797C35.4539 16.7097 35.8239 16.7097 36.2134 16.7797C36.6029 16.8497 36.952 16.9797 37.2607 17.1697C37.4998 17.2997 37.6985 17.4847 37.8568 17.7247ZM45.1623 16.8847C45.241 17.0747 45.2445 17.2847 45.1729 17.5147C45.1113 17.7447 44.9952 17.8947 44.8247 17.9647C44.7345 18.0047 44.6142 18.0397 44.464 18.0697C44.3139 18.0897 44.1487 18.1097 43.9686 18.1297C43.7984 18.1497 43.6283 18.1647 43.4583 18.1747C43.2882 18.1847 43.1432 18.1897 43.0232 18.1897C43.0311 18.4897 43.0389 18.7997 43.0466 19.1197C43.0545 19.4297 43.0623 19.7347 43.0702 20.0347C43.0781 20.3347 43.0811 20.6247 43.0791 20.9046C43.0773 21.1746 43.0705 21.4196 43.059 21.6396C43.0579 21.7896 43.0567 21.9646 43.0553 22.1646C43.054 22.3546 43.0377 22.5396 43.0064 22.7196C42.9852 22.8996 42.949 23.0596 42.8981 23.1996C42.8472 23.3296 42.7716 23.4146 42.6713 23.4546C42.3604 23.5846 42.0751 23.6196 41.8155 23.5596C41.5659 23.5096 41.3866 23.4046 41.2778 23.2446C41.1987 23.1146 41.1397 22.9646 41.1009 22.7946C41.0622 22.6146 41.0334 22.4346 41.0147 22.2546C41.006 22.0646 41.0023 21.8846 41.0035 21.7146C41.0147 21.5346 41.0208 21.3796 41.0217 21.2496C41.0347 20.8296 41.043 20.3547 41.0467 19.8247C41.0605 19.2847 41.0693 18.7447 41.0731 18.2047L40.8481 18.2047C40.7281 18.2047 40.5731 18.2047 40.3831 18.2047C40.2031 18.1947 40.0182 18.1797 39.8284 18.1597C39.6486 18.1297 39.4788 18.0947 39.3191 18.0547C39.1595 18.0047 39.0449 17.9347 38.9756 17.8447C38.8665 17.7147 38.7975 17.5747 38.7685 17.4247C38.7496 17.2747 38.7605 17.1347 38.8015 17.0047C38.8524 16.8647 38.9283 16.7447 39.029 16.6448C39.1298 16.5348 39.2452 16.4648 39.3755 16.4348C39.5558 16.3848 39.811 16.3598 40.141 16.3598C40.471 16.3498 40.781 16.3498 41.071 16.3598C41.0617 16.2598 41.0573 16.1648 41.058 16.0748C41.0587 15.9748 41.0543 15.8798 41.045 15.7898C41.0358 15.6698 41.0319 15.5198 41.0331 15.3398C41.0345 15.1498 41.0457 14.9648 41.067 14.7848C41.0983 14.5948 41.1446 14.4198 41.2057 14.2598C41.2669 14.0898 41.3528 13.9598 41.4634 13.8698C41.6143 13.7498 41.7647 13.6848 41.9148 13.6748C42.0749 13.6548 42.2198 13.6748 42.3494 13.7348C42.4889 13.7948 42.6033 13.8848 42.6925 14.0048C42.7917 14.1148 42.8608 14.2398 42.8998 14.3798C42.929 14.4998 42.953 14.6448 42.9718 14.8148C42.9907 14.9748 42.9995 15.1448 42.9982 15.3248C43.007 15.5048 43.0107 15.6848 43.0094 15.8648C43.0082 16.0448 43.007 16.2098 43.006 16.3598L43.156 16.3598C43.306 16.3598 43.481 16.3548 43.6811 16.3448C43.8812 16.3348 44.0761 16.3398 44.266 16.3598C44.4658 16.3798 44.6455 16.4298 44.8049 16.5098C44.9644 16.5798 45.0836 16.7047 45.1623 16.8847ZM46.4389 18.1897C46.4398 18.0697 46.4407 17.9347 46.4418 17.7847C46.4429 17.6247 46.449 17.4647 46.4601 17.3047C46.4713 17.1347 46.4874 16.9747 46.5085 16.8247C46.5396 16.6647 46.5806 16.5248 46.6314 16.4048C46.7127 16.2248 46.8385 16.1048 47.009 16.0448C47.1795 15.9748 47.3647 15.9448 47.5646 15.9548C47.7746 15.9548 47.9393 15.9898 48.0589 16.0598C48.1784 16.1298 48.2677 16.2248 48.3269 16.3448C48.3861 16.4548 48.4202 16.5848 48.4291 16.7347C48.4482 16.8747 48.4571 17.0247 48.456 17.1847C48.5471 17.0247 48.668 16.8947 48.8187 16.7947C48.9794 16.6947 49.14 16.6148 49.3004 16.5548C49.4608 16.4948 49.6061 16.4548 49.7362 16.4348C49.8664 16.4048 49.9415 16.3898 49.9615 16.3898C50.2117 16.3698 50.4367 16.3648 50.6367 16.3748C50.8466 16.3848 51.0763 16.4298 51.3257 16.5098C51.4853 16.5698 51.6497 16.6548 51.8189 16.7647C51.9882 16.8647 52.1374 16.9847 52.2664 17.1247C52.3954 17.2647 52.4793 17.4197 52.5181 17.5897C52.567 17.7497 52.5458 17.9197 52.4546 18.0997C52.3128 18.3497 52.1569 18.4747 51.9869 18.4747C51.817 18.4647 51.6322 18.4347 51.4326 18.3847C51.3227 18.3647 51.193 18.3197 51.0435 18.2497C50.894 18.1797 50.7643 18.1347 50.6545 18.1147C50.3148 18.0647 50.0146 18.0897 49.7539 18.1897C49.4932 18.2897 49.2674 18.4097 49.0764 18.5497C48.8552 18.7197 48.6639 18.9147 48.5023 19.1347L48.4872 21.2946C48.4853 21.5646 48.4783 21.8446 48.4663 22.1346C48.4643 22.4246 48.4224 22.6896 48.3407 22.9296C48.2691 23.1596 48.1428 23.3496 47.9617 23.4996C47.7908 23.6396 47.5403 23.6996 47.2105 23.6796C47.0306 23.6696 46.8712 23.5846 46.7323 23.4246C46.5935 23.2546 46.5096 23.0896 46.4807 22.9296C46.4618 22.7796 46.4481 22.5996 46.4395 22.3896C46.431 22.1796 46.4225 21.9596 46.4141 21.7296C46.4158 21.4996 46.4174 21.2696 46.419 21.0396C46.4207 20.7996 46.4222 20.5797 46.4236 20.3797L46.4389 18.1897ZM55.0489 16.7197C55.38 16.5598 55.7258 16.4448 56.0863 16.3748C56.4468 16.3048 56.8019 16.2898 57.1517 16.3298C57.5114 16.3698 57.8557 16.4648 58.1847 16.6148C58.5236 16.7647 58.8321 16.9747 59.1102 17.2447C59.3386 17.4747 59.5367 17.7547 59.7044 18.0847C59.8721 18.4047 59.9949 18.7197 60.0727 19.0297C60.2389 19.5797 60.26 20.1347 60.1361 20.6947C60.0122 21.2546 59.8035 21.7746 59.5102 22.2546C59.3686 22.4746 59.1922 22.6746 58.981 22.8546C58.7798 23.0246 58.5638 23.1646 58.333 23.2746C58.032 23.4146 57.7064 23.5096 57.356 23.5596C57.0056 23.6196 56.6655 23.6346 56.3357 23.6046C55.7359 23.5746 55.207 23.4246 54.7488 23.1546C54.3007 22.8846 53.9382 22.5396 53.6611 22.1196C53.394 21.6996 53.2174 21.2246 53.1311 20.6947C53.0549 20.1547 53.0937 19.6047 53.2476 19.0447C53.4118 18.4447 53.6452 17.9597 53.9478 17.5897C54.2605 17.2097 54.6275 16.9197 55.0489 16.7197ZM55.4848 18.7297C55.3339 18.8697 55.2176 19.0447 55.1362 19.2547C55.0547 19.4647 55.0032 19.6847 54.9815 19.9147C54.96 20.1347 54.9734 20.3597 55.0218 20.5897C55.0803 20.8096 55.1689 21.0096 55.2876 21.1896C55.3866 21.3396 55.5657 21.4646 55.825 21.5646C56.0843 21.6646 56.3539 21.7246 56.6337 21.7446C56.9536 21.7646 57.2342 21.6796 57.4755 21.4896C57.7169 21.2896 57.8986 21.0446 58.0207 20.7546C58.1527 20.4647 58.2149 20.1497 58.2073 19.8097C58.1997 19.4697 58.1118 19.1597 57.9438 18.8797C57.8252 18.6797 57.6562 18.5347 57.4368 18.4447C57.2275 18.3447 57.0029 18.2947 56.7629 18.2947C56.533 18.2847 56.3027 18.3197 56.0722 18.3997C55.8417 18.4697 55.6459 18.5797 55.4848 18.7297ZM61.4393 18.1447C61.4409 17.9147 61.4376 17.6697 61.4294 17.4097C61.4312 17.1497 61.4779 16.9147 61.5693 16.7047C61.6507 16.5148 61.7816 16.3798 61.9622 16.2998C62.1528 16.2098 62.3379 16.1898 62.5176 16.2398C62.6974 16.2698 62.837 16.3248 62.9364 16.4048C63.0359 16.4848 63.1052 16.5798 63.1444 16.6897C63.1937 16.7897 63.2229 16.9097 63.2319 17.0497C63.241 17.1797 63.2501 17.3097 63.2592 17.4397C63.3605 17.2597 63.4865 17.1147 63.6372 17.0047C63.788 16.8947 63.9436 16.8047 64.1041 16.7347C64.2646 16.6647 64.415 16.6148 64.5552 16.5848C64.7054 16.5548 64.8205 16.5398 64.9005 16.5398C65.2805 16.5398 65.6549 16.6248 66.0237 16.7947C66.4026 16.9547 66.716 17.1847 66.9639 17.4847C67.1026 17.6647 67.2063 17.8547 67.2749 18.0547C67.3536 18.2447 67.4072 18.4447 67.4357 18.6547C67.4742 18.8647 67.4977 19.0797 67.5062 19.2997C67.5147 19.5097 67.5232 19.7247 67.5316 19.9447C67.5772 20.5847 67.5727 21.2196 67.5183 21.8496C67.5074 21.9796 67.5013 22.1296 67.5002 22.2996C67.499 22.4696 67.4828 22.6396 67.4516 22.8096C67.4305 22.9696 67.3844 23.1146 67.3135 23.2446C67.2527 23.3646 67.1472 23.4396 66.997 23.4696C66.7866 23.5196 66.6115 23.5296 66.4717 23.4996C66.3419 23.4796 66.2372 23.4346 66.1577 23.3646C66.0782 23.2946 66.0188 23.2046 65.9796 23.0946C65.9404 22.9846 65.9062 22.8596 65.8772 22.7196C65.858 22.6096 65.8389 22.4846 65.8198 22.3446C65.8109 22.1946 65.8019 22.0446 65.793 21.8946C65.794 21.7446 65.7901 21.5996 65.781 21.4596C65.7821 21.3096 65.783 21.1746 65.7839 21.0546C65.7852 20.8646 65.7817 20.6547 65.7733 20.4247C65.7649 20.1947 65.7664 19.9797 65.7778 19.7797C65.7811 19.3097 65.6586 18.9547 65.4103 18.7147C65.172 18.4647 64.8427 18.3597 64.4225 18.3997C64.1022 18.4397 63.8213 18.5697 63.5797 18.7897C63.3383 18.9997 63.2213 19.2747 63.229 19.6147C63.228 19.7447 63.2272 19.8647 63.2264 19.9747C63.2257 20.0847 63.2199 20.1947 63.2091 20.3047C63.2084 20.4147 63.2075 20.5347 63.2066 20.6647C63.2057 20.7946 63.2047 20.9396 63.2036 21.0996C63.2012 21.4296 63.1988 21.7796 63.1962 22.1496C63.1937 22.5096 63.1466 22.8046 63.055 23.0346C62.9733 23.2746 62.8372 23.4396 62.6465 23.5296C62.4559 23.6196 62.2311 23.5946 61.9721 23.4546C61.8625 23.3946 61.773 23.3146 61.7037 23.2146C61.6445 23.1046 61.5953 22.9896 61.5562 22.8696C61.527 22.7496 61.5078 22.6296 61.4987 22.5096C61.4896 22.3796 61.4804 22.2596 61.4712 22.1496C61.4435 21.8196 61.4256 21.5146 61.4176 21.2346C61.4196 20.9446 61.4218 20.6347 61.4241 20.3047L61.4393 18.1447Z" fill="#69232C"/>
</svg>
