<svg width="82" height="38" viewBox="0 0 82 38" fill="none" xmlns="http://www.w3.org/2000/svg">
<rect x="1.5" y="1.5" width="78.0181" height="34.0977" fill="#A7777D" fill-opacity="0.14" stroke="#69232C" stroke-width="3" stroke-linecap="round" stroke-dasharray="6 6"/>
<path d="M20.7083 13.6558C20.7975 13.7758 20.8515 13.9158 20.8704 14.0757C20.87 14.1357 20.8646 14.1957 20.8541 14.2557C20.8538 14.3057 20.8484 14.3557 20.8381 14.4057C20.8273 14.5157 20.7616 14.6207 20.6409 14.7207C20.5705 14.7707 20.4802 14.8207 20.3698 14.8707C20.3097 14.8907 20.2446 14.9057 20.1745 14.9157C20.1145 14.9157 20.0445 14.9207 19.9644 14.9307C19.9043 14.9507 19.8392 14.9607 19.7692 14.9607C19.6992 14.9607 19.6292 14.9607 19.5592 14.9607L18.8842 14.9607L15.7491 14.9757L15.7488 15.0207L15.7167 17.4657C15.7967 17.4657 15.8817 17.4657 15.9717 17.4657C16.0717 17.4657 16.1917 17.4607 16.3318 17.4507C16.7318 17.4507 17.0868 17.4507 17.3968 17.4507C17.7168 17.4507 18.0667 17.4557 18.4467 17.4657L18.5367 17.4657C18.6467 17.4657 18.7566 17.4707 18.8666 17.4807C18.9866 17.4807 19.1066 17.4807 19.2266 17.4807C19.3365 17.4907 19.4464 17.5057 19.5562 17.5257C19.6662 17.5357 19.776 17.5607 19.8857 17.6007C20.0653 17.6607 20.1946 17.7557 20.2737 17.8857C20.3828 18.0157 20.4369 18.1506 20.4359 18.2906C20.4355 18.3506 20.435 18.4106 20.4346 18.4706C20.4343 18.5206 20.4239 18.5756 20.4035 18.6356C20.3929 18.7156 20.3272 18.8156 20.2064 18.9356C20.1259 19.0056 20.0306 19.0506 19.9204 19.0706C19.8703 19.0906 19.8101 19.1106 19.74 19.1306C19.6799 19.1406 19.6149 19.1506 19.5448 19.1606C19.4747 19.1706 19.4046 19.1806 19.3346 19.1906C19.2746 19.1906 19.2046 19.1906 19.1246 19.1906L18.4346 19.1906L15.6745 19.2056L15.6051 22.6855L15.6043 22.8055C15.6039 22.8555 15.5986 22.9055 15.5882 22.9555C15.5879 22.9955 15.5826 23.0405 15.5723 23.0905C15.5519 23.1405 15.5315 23.1955 15.5111 23.2555C15.5008 23.3055 15.4854 23.3555 15.4651 23.4055C15.3941 23.5455 15.3284 23.6405 15.2681 23.6905C15.1575 23.7705 15.0221 23.8255 14.8619 23.8555C14.5915 23.9155 14.3367 23.8855 14.0975 23.7655C14.0477 23.7355 13.998 23.7005 13.9483 23.6605C13.9086 23.6105 13.874 23.5505 13.8445 23.4805C13.8248 23.4405 13.815 23.4105 13.8152 23.3905L13.7708 23.3005C13.7411 23.2505 13.7215 23.2005 13.7118 23.1505C13.7023 23.0905 13.6926 23.0355 13.683 22.9855C13.6833 22.9355 13.6787 22.8855 13.669 22.8355C13.6694 22.7855 13.6647 22.7355 13.6551 22.6855C13.6457 22.6055 13.6462 22.5255 13.6568 22.4455L13.6585 22.2056L13.6817 21.0356L13.7118 18.8756C13.724 18.5556 13.7313 18.2306 13.7336 17.9007C13.7359 17.5707 13.7383 17.2307 13.7408 16.8807C13.7333 16.5207 13.7305 16.2007 13.7325 15.9207C13.7444 15.6407 13.7616 15.3357 13.7839 15.0057L13.7844 14.9307C13.7952 14.8207 13.8009 14.7207 13.8015 14.6307C13.8022 14.5307 13.8129 14.4307 13.8336 14.3307C13.8552 14.1107 13.9065 13.9158 13.9877 13.7458C14.0589 13.5758 14.1597 13.4558 14.2902 13.3858C14.4409 13.2958 14.6012 13.2508 14.7712 13.2508C14.8512 13.2508 14.9161 13.2558 14.9661 13.2658L14.9662 13.2508C15.1462 13.2508 15.2912 13.2508 15.4012 13.2508C15.5112 13.2508 15.6162 13.2508 15.7162 13.2508C15.8162 13.2508 15.9262 13.2508 16.0462 13.2508C16.1663 13.2408 16.3263 13.2358 16.5263 13.2358C17.3264 13.2258 18.1164 13.2258 18.8963 13.2358L18.9713 13.2358C19.0812 13.2458 19.1912 13.2508 19.3012 13.2508C19.4212 13.2508 19.5411 13.2558 19.6611 13.2658C19.7711 13.2658 19.881 13.2808 19.9908 13.3108C20.1006 13.3308 20.2104 13.3608 20.3201 13.4008C20.4898 13.4508 20.6192 13.5358 20.7083 13.6558ZM23.7211 18.1406C23.7191 18.4206 23.7169 18.7356 23.7145 19.0856C23.722 19.4356 23.7245 19.8006 23.7218 20.1806C23.7192 20.5506 23.7166 20.9206 23.714 21.2906C23.7115 21.6506 23.7042 21.9856 23.692 22.2955C23.681 22.4455 23.6648 22.6105 23.6435 22.7905C23.6223 22.9605 23.5812 23.1205 23.5202 23.2705C23.4591 23.4205 23.3632 23.5455 23.2325 23.6455C23.1119 23.7355 22.9466 23.7755 22.7367 23.7655C22.4268 23.7455 22.2028 23.6105 22.0645 23.3605C21.9363 23.1105 21.8637 22.7605 21.8469 22.3105C21.8485 22.0806 21.8454 21.8156 21.8375 21.5156C21.8396 21.2156 21.8367 20.9106 21.8289 20.6006C21.831 20.2906 21.8332 19.9906 21.8352 19.7006C21.8373 19.4006 21.8392 19.1306 21.8409 18.8906C21.8418 18.7506 21.838 18.5806 21.8294 18.3806C21.8308 18.1806 21.8373 17.9757 21.8487 17.7657C21.8602 17.5557 21.8866 17.3557 21.9279 17.1657C21.9693 16.9657 22.0355 16.8007 22.1264 16.6707C22.197 16.5907 22.2974 16.5307 22.4277 16.4907C22.558 16.4407 22.6932 16.4157 22.8332 16.4157C22.9832 16.4157 23.123 16.4407 23.2527 16.4907C23.3923 16.5407 23.4918 16.6107 23.5512 16.7007C23.5908 16.7607 23.6202 16.8457 23.6394 16.9557C23.6586 17.0657 23.6728 17.1907 23.6818 17.3307C23.7009 17.4607 23.7099 17.6007 23.7088 17.7507C23.7179 17.8907 23.7219 18.0207 23.7211 18.1406ZM23.1723 15.1107C22.8618 15.1907 22.602 15.1607 22.393 15.0207C22.194 14.8707 22.0706 14.6507 22.0226 14.3607C21.9841 14.1507 22.0004 13.9658 22.0715 13.8058C22.1426 13.6458 22.2484 13.5258 22.389 13.4458C22.5296 13.3558 22.6899 13.3158 22.8698 13.3258C23.0498 13.3358 23.2293 13.4058 23.4084 13.5358C23.5775 13.6558 23.6965 13.7958 23.7654 13.9558C23.8443 14.1157 23.8682 14.2707 23.8372 14.4207C23.8161 14.5707 23.7501 14.7107 23.6392 14.8407C23.5284 14.9607 23.3728 15.0507 23.1723 15.1107ZM25.0515 18.5156C25.0523 18.3956 25.0533 18.2606 25.0543 18.1107C25.0554 17.9507 25.0616 17.7907 25.0727 17.6307C25.0839 17.4607 25.1 17.3007 25.1211 17.1507C25.1522 16.9907 25.1932 16.8507 25.244 16.7307C25.3253 16.5507 25.4511 16.4307 25.6215 16.3707C25.792 16.3007 25.9772 16.2707 26.1771 16.2807C26.3871 16.2807 26.5519 16.3157 26.6714 16.3857C26.7909 16.4557 26.8803 16.5507 26.9394 16.6707C26.9986 16.7807 27.0327 16.9107 27.0417 17.0607C27.0607 17.2007 27.0696 17.3507 27.0685 17.5107C27.1596 17.3507 27.2806 17.2207 27.4313 17.1207C27.592 17.0207 27.7525 16.9407 27.9129 16.8807C28.0734 16.8207 28.2186 16.7807 28.3488 16.7607C28.479 16.7307 28.5541 16.7157 28.5741 16.7157C28.8242 16.6957 29.0493 16.6907 29.2492 16.7007C29.4591 16.7107 29.6888 16.7557 29.9383 16.8357C30.0978 16.8957 30.2622 16.9807 30.4315 17.0907C30.6008 17.1907 30.7499 17.3107 30.8789 17.4507C31.008 17.5907 31.0919 17.7457 31.1307 17.9157C31.1796 18.0757 31.1584 18.2456 31.0671 18.4256C30.9254 18.6756 30.7695 18.8006 30.5995 18.8006C30.4296 18.7906 30.2448 18.7606 30.0451 18.7106C29.9353 18.6906 29.8056 18.6456 29.6561 18.5756C29.5066 18.5056 29.3769 18.4606 29.267 18.4406C28.9274 18.3906 28.6272 18.4156 28.3665 18.5156C28.1058 18.6156 27.8799 18.7356 27.689 18.8756C27.4678 19.0456 27.2764 19.2406 27.1149 19.4606L27.0997 21.6206C27.0978 21.8906 27.0909 22.1706 27.0789 22.4605C27.0768 22.7505 27.035 23.0155 26.9533 23.2555C26.8817 23.4855 26.7553 23.6755 26.5743 23.8255C26.4033 23.9655 26.1529 24.0255 25.823 24.0055C25.6431 23.9955 25.4837 23.9105 25.3448 23.7505C25.206 23.5805 25.1222 23.4155 25.0933 23.2555C25.0743 23.1055 25.0606 22.9255 25.0521 22.7155C25.0435 22.5055 25.0351 22.2855 25.0267 22.0556C25.0283 21.8256 25.0299 21.5956 25.0315 21.3656C25.0332 21.1256 25.0347 20.9056 25.0362 20.7056L25.0515 18.5156ZM36.6344 21.7706C36.7546 21.7406 36.8747 21.7206 36.9948 21.7106C37.1248 21.7006 37.2397 21.7156 37.3395 21.7556C37.4492 21.7956 37.5387 21.8656 37.608 21.9656C37.6774 22.0556 37.7114 22.1856 37.7103 22.3555C37.7094 22.4755 37.6786 22.5905 37.6178 22.7005C37.5571 22.8105 37.4814 22.9105 37.3907 23.0005C37.3001 23.0905 37.1995 23.1705 37.0891 23.2405C36.9786 23.3005 36.8733 23.3505 36.773 23.3905C36.4821 23.5205 36.1464 23.6205 35.7659 23.6905C35.3954 23.7605 35.0102 23.7855 34.6104 23.7655C34.0705 23.7455 33.5513 23.6405 33.0526 23.4505C32.564 23.2505 32.1813 22.9255 31.9044 22.4755C31.6475 22.0356 31.4959 21.5456 31.4497 21.0056C31.4035 20.4656 31.4321 19.9556 31.5354 19.4756C31.6495 18.8956 31.8378 18.4256 32.1003 18.0657C32.3729 17.6957 32.695 17.4007 33.0665 17.1807C33.5183 16.9207 34.0243 16.7857 34.5843 16.7757C35.1444 16.7657 35.6786 16.8757 36.187 17.1057C36.526 17.2557 36.8295 17.4607 37.0977 17.7207C37.366 17.9707 37.5688 18.2756 37.7063 18.6356C37.7457 18.7256 37.7749 18.8356 37.794 18.9656C37.8231 19.0956 37.8421 19.2356 37.8511 19.3856C37.8601 19.5256 37.8591 19.6656 37.8481 19.8056C37.8371 19.9456 37.8113 20.0706 37.7705 20.1806C37.7092 20.3606 37.6332 20.5006 37.5425 20.6006C37.4518 20.7006 37.3363 20.7756 37.196 20.8256C37.0556 20.8756 36.8854 20.9106 36.6852 20.9306C36.4952 20.9406 36.2651 20.9506 35.995 20.9606C35.755 20.9706 35.5299 20.9756 35.3199 20.9756C35.1099 20.9756 34.8949 20.9756 34.6749 20.9756C34.455 20.9656 34.225 20.9606 33.985 20.9606C33.7551 20.9506 33.4952 20.9406 33.2052 20.9306C33.1738 21.1306 33.1976 21.3056 33.2766 21.4556C33.3656 21.5956 33.4847 21.7156 33.634 21.8156C33.7834 21.9056 33.9529 21.9756 34.1426 22.0256C34.3322 22.0756 34.517 22.1056 34.6969 22.1156C35.0368 22.1356 35.362 22.1106 35.6725 22.0406C35.983 21.9606 36.3037 21.8706 36.6344 21.7706ZM36.0097 18.8606C35.8213 18.6406 35.6224 18.4806 35.4131 18.3806C35.2536 18.3106 35.0838 18.2806 34.9037 18.2906C34.7337 18.2906 34.5686 18.3156 34.4082 18.3656C34.1177 18.4356 33.8717 18.5856 33.6701 18.8156C33.6499 18.8356 33.6146 18.8856 33.564 18.9656C33.5135 19.0356 33.463 19.1106 33.4124 19.1906C33.3719 19.2706 33.3413 19.3456 33.3208 19.4156C33.3004 19.4856 33.3101 19.5206 33.3501 19.5206L36.2901 19.5206C36.2811 19.3806 36.2569 19.2656 36.2175 19.1756C36.1782 19.0756 36.109 18.9706 36.0097 18.8606ZM39.1289 14.3457C39.1514 13.9858 39.2635 13.6958 39.465 13.4758C39.6765 13.2558 39.972 13.1958 40.3513 13.2958C40.5309 13.3458 40.6604 13.4208 40.7397 13.5208C40.829 13.6208 40.8881 13.7408 40.9172 13.8808C40.9562 14.0108 40.9752 14.1557 40.9741 14.3157C40.9731 14.4657 40.972 14.6157 40.971 14.7657L40.9565 16.8357C40.9459 16.9157 40.9403 16.9957 40.9398 17.0757C40.9493 17.1457 40.9538 17.2107 40.9534 17.2707L40.952 17.4657L41.327 17.4657C41.437 17.4657 41.542 17.4657 41.642 17.4657C41.752 17.4657 41.8471 17.4607 41.9272 17.4507C42.4772 17.4507 42.9466 17.5307 43.3355 17.6907C43.7343 17.8507 44.0528 18.0757 44.2907 18.3656C44.5388 18.6456 44.7164 18.9856 44.8236 19.3856C44.9409 19.7756 44.9929 20.2056 44.9796 20.6756C44.9656 21.2356 44.8723 21.7156 44.6995 22.1156C44.5267 22.5155 44.2844 22.8455 43.9725 23.1055C43.6607 23.3655 43.2844 23.5605 42.8434 23.6905C42.4126 23.8105 41.9272 23.8705 41.3872 23.8705C40.7672 23.8705 40.2972 23.8655 39.9773 23.8555C39.6574 23.8455 39.428 23.7555 39.2892 23.5855C39.1604 23.4155 39.0924 23.1205 39.0854 22.7005C39.0783 22.2805 39.0776 21.6656 39.0833 20.8556C39.0888 20.0756 39.0942 19.3056 39.0995 18.5456C39.1148 17.7857 39.1202 17.0207 39.1156 16.2507C39.1163 16.1507 39.112 16.0457 39.1028 15.9357C39.1035 15.8257 39.1044 15.7007 39.1054 15.5607C39.1064 15.4207 39.1075 15.2557 39.1089 15.0657C39.1103 14.8657 39.1169 14.6257 39.1289 14.3457ZM41.879 22.1906C42.4292 22.1606 42.8102 22.0106 43.0221 21.7406C43.1332 21.5906 43.2194 21.4106 43.2809 21.2006C43.3424 20.9906 43.3688 20.7806 43.3603 20.5706C43.3518 20.3606 43.3082 20.1606 43.2295 19.9706C43.1609 19.7706 43.0471 19.6056 42.888 19.4756C42.7488 19.3556 42.6094 19.2706 42.4698 19.2206C42.3302 19.1606 42.1854 19.1256 42.0355 19.1156C41.8856 19.0956 41.7257 19.0906 41.5556 19.1006C41.3856 19.1006 41.1906 19.1056 40.9705 19.1156L40.9579 20.9156L40.9192 22.1606C41.0191 22.1706 41.124 22.1806 41.234 22.1906C41.4238 22.2105 41.6388 22.2105 41.879 22.1906ZM47.9655 17.5107C48.2666 17.3607 48.5823 17.2557 48.9127 17.1957C49.2432 17.1257 49.5683 17.1107 49.888 17.1507C50.2178 17.1807 50.5322 17.2657 50.8313 17.4057C51.1303 17.5357 51.409 17.7257 51.6673 17.9757C51.9254 18.2356 52.1234 18.5206 52.2613 18.8306C52.3991 19.1406 52.4967 19.4856 52.554 19.8656C52.5922 20.1256 52.6555 20.3656 52.744 20.5856C52.8324 20.8056 52.9259 21.0256 53.0244 21.2456C53.1328 21.4656 53.2313 21.6856 53.3197 21.9056C53.4182 22.1256 53.4966 22.3555 53.5549 22.5955C53.6033 22.8255 53.5817 23.0505 53.4902 23.2705C53.4087 23.4805 53.2378 23.6105 52.9774 23.6605C52.8272 23.6905 52.6823 23.6805 52.5427 23.6305C52.4131 23.5705 52.2936 23.4905 52.1843 23.3905C52.0751 23.2805 51.9759 23.1655 51.8868 23.0455C51.8077 22.9155 51.7335 22.7955 51.6643 22.6855C51.4322 22.9855 51.1805 23.2205 50.9093 23.3905C50.6382 23.5505 50.3125 23.6555 49.9321 23.7055C49.6118 23.7455 49.3068 23.7555 49.0169 23.7355C48.7271 23.7155 48.4174 23.6605 48.0881 23.5705C47.6588 23.4605 47.3052 23.2705 47.0271 23.0005C46.759 22.7205 46.5513 22.4005 46.4038 22.0406C46.2664 21.6706 46.1941 21.2756 46.1871 20.8556C46.18 20.4356 46.2329 20.0206 46.3458 19.6106C46.4896 19.0706 46.7027 18.6306 46.9851 18.2906C47.2674 17.9507 47.5943 17.6907 47.9655 17.5107ZM48.3282 19.2656C48.1872 19.4056 48.0761 19.5706 47.9948 19.7606C47.9134 19.9506 47.862 20.1506 47.8406 20.3606C47.8291 20.5706 47.8476 20.7806 47.8961 20.9906C47.9447 21.2006 48.0234 21.3856 48.1323 21.5456C48.2313 21.6856 48.4004 21.8056 48.6397 21.9056C48.8791 21.9956 49.1287 22.0506 49.3886 22.0706C49.6884 22.0906 49.949 22.0106 50.1703 21.8306C50.4015 21.6506 50.5731 21.4256 50.685 21.1556C50.807 20.8756 50.864 20.5806 50.8562 20.2706C50.8484 19.9506 50.7655 19.6606 50.6073 19.4006C50.4886 19.2106 50.3296 19.0706 50.1302 18.9806C49.9409 18.8906 49.7362 18.8456 49.5162 18.8456C49.2962 18.8356 49.076 18.8706 48.8554 18.9506C48.6449 19.0206 48.4692 19.1256 48.3282 19.2656ZM58.3977 21.1856C58.2085 21.0656 57.9942 20.9706 57.7547 20.9006C57.5252 20.8306 57.2856 20.7656 57.0361 20.7056C56.7965 20.6456 56.5619 20.5806 56.3324 20.5106C56.103 20.4306 55.8938 20.3206 55.7047 20.1806C55.2969 19.8706 55.0596 19.4906 54.9927 19.0406C54.936 18.5806 55.0392 18.1207 55.3024 17.6607C55.4441 17.4207 55.6304 17.2257 55.8615 17.0757C56.0926 16.9157 56.3435 16.7957 56.614 16.7157C56.8946 16.6257 57.18 16.5757 57.4701 16.5657C57.7601 16.5557 58.035 16.5707 58.2948 16.6107C58.4645 16.6407 58.6442 16.6857 58.8338 16.7457C59.0235 16.7957 59.198 16.8657 59.3573 16.9557C59.5267 17.0457 59.6759 17.1607 59.8049 17.3007C59.944 17.4307 60.0429 17.5957 60.1015 17.7957C60.1405 17.9257 60.1447 18.0507 60.1138 18.1706C60.093 18.2906 60.0423 18.3906 59.9617 18.4706C59.8912 18.5506 59.7957 18.6106 59.6755 18.6506C59.5652 18.6906 59.4451 18.7006 59.3153 18.6806C59.1655 18.6506 59.0258 18.6056 58.8962 18.5456C58.7666 18.4856 58.6371 18.4206 58.5076 18.3506C58.3781 18.2806 58.2435 18.2206 58.1038 18.1706C57.9742 18.1207 57.8344 18.0957 57.6844 18.0957C57.4544 18.0857 57.2641 18.1256 57.1135 18.2156C56.9629 18.3056 56.8571 18.4156 56.7962 18.5456C56.7453 18.6756 56.7493 18.8156 56.8083 18.9656C56.8772 19.1156 57.0163 19.2456 57.2255 19.3556C57.4148 19.4556 57.6243 19.5356 57.8538 19.5956C58.0834 19.6556 58.308 19.7156 58.5276 19.7756C58.7572 19.8356 58.9767 19.9056 59.1861 19.9856C59.4056 20.0656 59.5998 20.1756 59.7688 20.3156C60.0969 20.5856 60.2947 20.9006 60.3622 21.2606C60.4397 21.6206 60.4172 21.9756 60.2947 22.3255C60.1723 22.6755 59.9601 22.9855 59.6582 23.2555C59.3663 23.5255 59.0201 23.7055 58.6194 23.7955C58.329 23.8555 58.0138 23.8855 57.6738 23.8855C57.3438 23.8855 57.014 23.8505 56.6845 23.7805C56.365 23.7105 56.0558 23.6005 55.7568 23.4505C55.4679 23.3005 55.2242 23.1105 55.0258 22.8805C54.887 22.7205 54.8132 22.5405 54.8046 22.3405C54.8061 22.1306 54.8473 21.9506 54.9284 21.8006C55.0195 21.6406 55.1453 21.5306 55.3057 21.4706C55.4661 21.4106 55.6459 21.4456 55.845 21.5756C56.0042 21.6856 56.1934 21.7956 56.4127 21.9056C56.632 22.0056 56.8514 22.0856 57.071 22.1456C57.2906 22.2055 57.5004 22.2355 57.7004 22.2355C57.9104 22.2355 58.0907 22.1906 58.2413 22.1006C58.4623 21.9606 58.5784 21.8006 58.5897 21.6206C58.601 21.4306 58.537 21.2856 58.3977 21.1856ZM66.8101 21.7706C66.9303 21.7406 67.0505 21.7206 67.1706 21.7106C67.3006 21.7006 67.4155 21.7156 67.5152 21.7556C67.625 21.7956 67.7145 21.8656 67.7838 21.9656C67.8531 22.0556 67.8872 22.1856 67.886 22.3555C67.8852 22.4755 67.8544 22.5905 67.7936 22.7005C67.7328 22.8105 67.6571 22.9105 67.5665 23.0005C67.4759 23.0905 67.3753 23.1705 67.2648 23.2405C67.1544 23.3005 67.0491 23.3505 66.9488 23.3905C66.6579 23.5205 66.3222 23.6205 65.9417 23.6905C65.5712 23.7605 65.186 23.7855 64.7862 23.7655C64.2463 23.7455 63.727 23.6405 63.2284 23.4505C62.7398 23.2505 62.357 22.9255 62.0802 22.4755C61.8233 22.0356 61.6717 21.5456 61.6255 21.0056C61.5793 20.4656 61.6078 19.9556 61.7112 19.4756C61.8253 18.8956 62.0136 18.4256 62.2761 18.0657C62.5487 17.6957 62.8707 17.4007 63.2423 17.1807C63.6941 16.9207 64.2001 16.7857 64.7601 16.7757C65.3202 16.7657 65.8544 16.8757 66.3628 17.1057C66.7018 17.2557 67.0053 17.4607 67.2735 17.7207C67.5418 17.9707 67.7446 18.2756 67.8821 18.6356C67.9215 18.7256 67.9507 18.8356 67.9698 18.9656C67.9989 19.0956 68.0179 19.2356 68.0268 19.3856C68.0359 19.5256 68.0349 19.6656 68.0239 19.8056C68.0129 19.9456 67.987 20.0706 67.9463 20.1806C67.885 20.3606 67.809 20.5006 67.7183 20.6006C67.6276 20.7006 67.5121 20.7756 67.3718 20.8256C67.2314 20.8756 67.0612 20.9106 66.861 20.9306C66.6709 20.9406 66.4409 20.9506 66.1708 20.9606C65.9307 20.9706 65.7057 20.9756 65.4957 20.9756C65.2857 20.9756 65.0707 20.9756 64.8507 20.9756C64.6308 20.9656 64.4008 20.9606 64.1608 20.9606C63.9309 20.9506 63.6709 20.9406 63.381 20.9306C63.3496 21.1306 63.3734 21.3056 63.4523 21.4556C63.5414 21.5956 63.6605 21.7156 63.8098 21.8156C63.9592 21.9056 64.1287 21.9756 64.3183 22.0256C64.508 22.0756 64.6928 22.1056 64.8727 22.1156C65.2126 22.1356 65.5378 22.1106 65.8482 22.0406C66.1588 21.9606 66.4794 21.8706 66.8101 21.7706ZM66.1855 18.8606C65.9971 18.6406 65.7982 18.4806 65.5889 18.3806C65.4294 18.3106 65.2596 18.2806 65.0795 18.2906C64.9095 18.2906 64.7443 18.3156 64.584 18.3656C64.2935 18.4356 64.0474 18.5856 63.8458 18.8156C63.8257 18.8356 63.7903 18.8856 63.7398 18.9656C63.6893 19.0356 63.6388 19.1106 63.5882 19.1906C63.5476 19.2706 63.5171 19.3456 63.4966 19.4156C63.4761 19.4856 63.4859 19.5206 63.5259 19.5206L66.4659 19.5206C66.4569 19.3806 66.4327 19.2656 66.3933 19.1756C66.354 19.0756 66.2847 18.9706 66.1855 18.8606Z" fill="#69232C"/>
</svg>
