<svg width="82" height="38" viewBox="0 0 82 38" fill="none" xmlns="http://www.w3.org/2000/svg">
<rect x="1.5" y="1.5" width="78.0181" height="34.0977" fill="#A7777D" fill-opacity="0.14" stroke="#69232C" stroke-width="3" stroke-linecap="round" stroke-dasharray="6 6"/>
<path d="M24.2278 14.0194C24.6054 14.3694 24.8824 14.7894 25.059 15.2794C25.2356 15.7594 25.3023 16.2393 25.2589 16.7193C25.2157 17.1793 25.0677 17.6043 24.815 17.9943C24.5623 18.3743 24.1803 18.6643 23.6689 18.8643C23.2677 19.0343 22.8719 19.1543 22.4814 19.2243C22.0909 19.2943 21.6605 19.3493 21.1902 19.3893C20.9801 19.4093 20.8 19.4243 20.6499 19.4343C20.5099 19.4343 20.3449 19.4393 20.1548 19.4493C20.1148 19.4493 20.0448 19.4493 19.9448 19.4493C19.8548 19.4493 19.7898 19.4543 19.7497 19.4643L19.7279 22.5692C19.6966 22.7592 19.6553 22.9542 19.6039 23.1542C19.5624 23.3542 19.4464 23.5092 19.2556 23.6192C19.1452 23.6792 19.0099 23.7142 18.8499 23.7242C18.6898 23.7342 18.5448 23.7292 18.415 23.7092C18.2751 23.6892 18.1553 23.6542 18.0557 23.6042C17.9661 23.5442 17.8918 23.4442 17.8328 23.3042C17.7934 23.2142 17.7541 23.1142 17.7149 23.0042C17.6857 22.8842 17.6718 22.7392 17.6729 22.5692L17.731 14.2744C17.7315 14.2044 17.737 14.1394 17.7474 14.0794C17.7578 14.0194 17.7683 13.9594 17.7787 13.8994C17.799 13.8494 17.8144 13.7944 17.8248 13.7344C17.8353 13.6744 17.8506 13.6194 17.871 13.5694C17.8913 13.5194 17.9117 13.4744 17.9319 13.4344C17.9622 13.3944 17.9975 13.3594 18.0377 13.3294C18.088 13.2794 18.1633 13.2344 18.2636 13.1944C18.3739 13.1544 18.534 13.1344 18.744 13.1344L18.774 13.1344C19.0842 13.1144 19.4293 13.0994 19.8093 13.0894C20.1895 13.0694 20.5045 13.0744 20.7542 13.1044C20.8941 13.1244 21.024 13.1394 21.1439 13.1494C21.2639 13.1494 21.3789 13.1544 21.4888 13.1644C21.6088 13.1744 21.7287 13.1844 21.8486 13.1944C21.9685 13.2044 22.0884 13.2194 22.2083 13.2394C22.3082 13.2594 22.3981 13.2744 22.478 13.2844C22.5679 13.2944 22.6578 13.3094 22.7477 13.3294C22.8275 13.3494 22.9124 13.3694 23.0022 13.3894C23.1021 13.4094 23.1919 13.4444 23.2715 13.4944C23.4811 13.5544 23.6556 13.6294 23.7949 13.7194C23.9343 13.8094 24.0786 13.9094 24.2278 14.0194ZM23.3105 16.4943C23.3222 16.2543 23.2737 16.0444 23.1649 15.8644C23.0662 15.6844 22.9222 15.5344 22.7331 15.4144C22.5439 15.2944 22.3296 15.1994 22.0901 15.1294C21.8506 15.0594 21.6109 15.0094 21.3711 14.9794C21.3111 14.9794 21.2261 14.9794 21.1161 14.9794C21.0162 14.9694 20.9062 14.9644 20.7862 14.9644C20.6663 14.9544 20.5513 14.9494 20.4413 14.9494C20.3414 14.9394 20.2614 14.9344 20.2014 14.9344C20.1515 14.9244 20.0915 14.9194 20.0215 14.9194C19.9515 14.9194 19.8715 14.9194 19.7815 14.9194C19.7894 15.2294 19.7923 15.5294 19.7902 15.8194C19.7883 16.0993 19.7861 16.4043 19.7838 16.7343C19.7726 16.9143 19.7663 17.0943 19.765 17.2743C19.7638 17.4543 19.7625 17.6293 19.7614 17.7993L20.6915 17.7843C20.9315 17.7843 21.1966 17.7693 21.4868 17.7393C21.777 17.7093 22.0524 17.6493 22.313 17.5593C22.5737 17.4693 22.7946 17.3393 22.9758 17.1693C23.167 16.9993 23.2785 16.7743 23.3105 16.4943ZM33.3713 17.0043C33.4604 17.1443 33.4993 17.2943 33.4882 17.4543C33.4866 17.6843 33.4452 17.8843 33.364 18.0543C33.3436 18.1043 33.3132 18.1693 33.2726 18.2493C33.2421 18.3293 33.2065 18.4143 33.1658 18.5043C33.1352 18.5943 33.0996 18.6793 33.059 18.7593C33.0185 18.8393 32.9881 18.8993 32.9678 18.9393L32.9373 19.0143C32.7951 19.3243 32.658 19.6243 32.526 19.9143C32.3939 20.2042 32.2468 20.5142 32.0844 20.8442C31.9222 21.1642 31.765 21.4792 31.6128 21.7892C31.4707 22.0892 31.3287 22.3842 31.1866 22.6742C31.1461 22.7542 31.1105 22.8342 31.0799 22.9142C31.0495 22.9842 31.0089 23.0592 30.9584 23.1392L30.2275 24.6841C30.0957 24.9441 29.9689 25.1991 29.8472 25.4491C29.7354 25.6991 29.6087 25.9491 29.4669 26.1991C29.4366 26.2491 29.4063 26.2941 29.376 26.3341C29.3556 26.3841 29.3353 26.4341 29.3149 26.4841C29.2441 26.6041 29.1383 26.7191 28.9975 26.8291C28.8667 26.9491 28.7262 27.0141 28.5762 27.0241C28.306 27.0441 28.0716 26.9641 27.8728 26.7841C27.7533 26.7141 27.659 26.6141 27.5899 26.4841C27.5506 26.3941 27.5314 26.2791 27.5324 26.1391C27.5428 26.0791 27.5482 26.0191 27.5486 25.9591C27.559 25.9091 27.5693 25.8591 27.5797 25.8091C27.6 25.7591 27.6154 25.7091 27.6257 25.6591C27.6361 25.6091 27.6513 25.5691 27.6716 25.5391C27.7021 25.4591 27.7274 25.4191 27.7474 25.4191L28.859 23.0492C28.8098 22.9392 28.7605 22.8292 28.7113 22.7192C28.6622 22.5992 28.6179 22.4942 28.5785 22.4042C28.4507 22.0942 28.313 21.7692 28.1653 21.4292C28.0278 21.0792 27.8852 20.7342 27.7376 20.3942C27.59 20.0443 27.4374 19.7043 27.2797 19.3743C27.1221 19.0443 26.9643 18.7293 26.8064 18.4293C26.7471 18.3293 26.6928 18.2243 26.6436 18.1143C26.5944 17.9943 26.5552 17.8793 26.526 17.7693C26.4968 17.6493 26.4877 17.5293 26.4985 17.4093C26.5093 17.2893 26.5552 17.1693 26.636 17.0493C26.7171 16.8993 26.8228 16.7943 26.9532 16.7343C27.0837 16.6643 27.2189 16.6343 27.3589 16.6443C27.5089 16.6443 27.6487 16.6743 27.7782 16.7343C27.9078 16.7943 28.0123 16.8743 28.0916 16.9743C28.2603 17.1543 28.3939 17.3543 28.4923 17.5743C28.5908 17.7943 28.6842 18.0193 28.7726 18.2493C28.9598 18.6493 29.1519 19.0693 29.3488 19.5093C29.5457 19.9493 29.7427 20.3792 29.9398 20.7992L30.7313 19.1493C30.8124 18.9893 30.8835 18.8343 30.9446 18.6843C31.0156 18.5343 31.0866 18.3893 31.1576 18.2493C31.2388 18.0793 31.315 17.9043 31.3863 17.7243C31.4676 17.5443 31.5587 17.3793 31.6598 17.2293C31.68 17.1893 31.7003 17.1543 31.7205 17.1243C31.7407 17.0943 31.761 17.0593 31.7812 17.0193C31.8721 16.8993 31.9527 16.8043 32.0232 16.7343C32.0735 16.6943 32.1137 16.6643 32.1439 16.6443C32.1841 16.6143 32.2292 16.5943 32.2793 16.5843C32.3494 16.5643 32.4145 16.5543 32.4745 16.5543C32.5446 16.5443 32.6096 16.5443 32.6695 16.5543C32.7693 16.5843 32.889 16.6293 33.0285 16.6893C33.1781 16.7493 33.2924 16.8543 33.3713 17.0043ZM40.7863 17.0793C40.865 17.2693 40.8685 17.4793 40.7969 17.7093C40.7353 17.9393 40.6192 18.0893 40.4488 18.1593C40.3585 18.1993 40.2382 18.2343 40.088 18.2643C39.9379 18.2843 39.7727 18.3043 39.5926 18.3243C39.4225 18.3443 39.2524 18.3593 39.0823 18.3693C38.9122 18.3793 38.7672 18.3843 38.6472 18.3843C38.6551 18.6843 38.6629 18.9943 38.6707 19.3143C38.6785 19.6243 38.6864 19.9293 38.6943 20.2292C38.7022 20.5292 38.7051 20.8192 38.7032 21.0992C38.7013 21.3692 38.6946 21.6142 38.683 21.8342C38.682 21.9842 38.6807 22.1592 38.6793 22.3592C38.678 22.5492 38.6617 22.7342 38.6305 22.9142C38.6092 23.0942 38.5731 23.2542 38.5221 23.3942C38.4712 23.5242 38.3956 23.6092 38.2953 23.6492C37.9844 23.7792 37.6991 23.8142 37.4396 23.7542C37.1899 23.7042 37.0107 23.5992 36.9018 23.4392C36.8227 23.3092 36.7637 23.1592 36.7249 22.9892C36.6862 22.8092 36.6574 22.6292 36.6387 22.4492C36.63 22.2592 36.6263 22.0792 36.6275 21.9092C36.6388 21.7292 36.6448 21.5742 36.6457 21.4442C36.6587 21.0242 36.667 20.5492 36.6707 20.0193C36.6845 19.4793 36.6933 18.9393 36.6971 18.3993L36.4721 18.3993C36.3521 18.3993 36.1971 18.3993 36.0071 18.3993C35.8271 18.3893 35.6423 18.3743 35.4524 18.3543C35.2726 18.3243 35.1028 18.2893 34.9431 18.2493C34.7835 18.1993 34.669 18.1293 34.5996 18.0393C34.4905 17.9093 34.4215 17.7693 34.3925 17.6193C34.3736 17.4693 34.3846 17.3293 34.4255 17.1993C34.4765 17.0593 34.5523 16.9393 34.653 16.8393C34.7538 16.7293 34.8693 16.6593 34.9995 16.6293C35.1798 16.5793 35.435 16.5543 35.765 16.5543C36.0951 16.5443 36.4051 16.5443 36.695 16.5543C36.6857 16.4543 36.6814 16.3593 36.682 16.2693C36.6827 16.1693 36.6784 16.0743 36.669 15.9844C36.6598 15.8644 36.6559 15.7144 36.6571 15.5344C36.6585 15.3444 36.6698 15.1594 36.691 14.9794C36.7224 14.7894 36.7686 14.6144 36.8297 14.4544C36.8909 14.2844 36.9768 14.1544 37.0874 14.0644C37.2383 13.9444 37.3887 13.8794 37.5388 13.8694C37.6989 13.8494 37.8438 13.8694 37.9734 13.9294C38.113 13.9894 38.2273 14.0794 38.3165 14.1994C38.4157 14.3094 38.4848 14.4344 38.5239 14.5744C38.553 14.6944 38.577 14.8394 38.5958 15.0094C38.6147 15.1694 38.6235 15.3394 38.6222 15.5194C38.631 15.6994 38.6347 15.8794 38.6335 16.0594C38.6322 16.2393 38.6311 16.4043 38.63 16.5543L38.78 16.5543C38.93 16.5543 39.105 16.5493 39.3051 16.5393C39.5052 16.5293 39.7001 16.5343 39.89 16.5543C40.0899 16.5743 40.2695 16.6243 40.4289 16.7043C40.5885 16.7743 40.7076 16.8993 40.7863 17.0793ZM47.8815 20.7392C47.8901 20.9392 47.8936 21.1492 47.8921 21.3692C47.8906 21.5792 47.8842 21.7742 47.873 21.9542C47.8611 22.2242 47.8443 22.4742 47.8227 22.7042C47.8012 22.9242 47.7598 23.1142 47.6987 23.2742C47.6377 23.4242 47.5419 23.5392 47.4113 23.6192C47.2908 23.6892 47.1207 23.7092 46.9009 23.6792C46.6711 23.6492 46.5069 23.5392 46.4082 23.3492C46.3095 23.1592 46.241 22.9442 46.2027 22.7042C46.1745 22.4542 46.1662 22.2042 46.178 21.9542C46.1897 21.7042 46.1911 21.5092 46.1821 21.3692C46.1736 21.1492 46.1653 20.8992 46.1573 20.6192C46.1593 20.3292 46.1312 20.0593 46.073 19.8093C46.0248 19.5493 45.9363 19.3293 45.8076 19.1493C45.6789 18.9693 45.4845 18.8743 45.2246 18.8643C44.8947 18.8443 44.6396 18.8693 44.4591 18.9393C44.2886 19.0093 44.1629 19.1143 44.0819 19.2543C44.001 19.3843 43.9498 19.5443 43.9285 19.7343C43.9172 19.9243 43.8957 20.1293 43.8642 20.3492L43.8451 20.9342L43.8374 22.0292C43.8362 22.2092 43.8298 22.3992 43.8184 22.5992C43.8171 22.7892 43.7859 22.9642 43.7248 23.1242C43.6636 23.2842 43.5677 23.4192 43.4369 23.5292C43.3162 23.6392 43.1358 23.6942 42.8958 23.6942C42.5958 23.6942 42.3714 23.5992 42.2228 23.4092C42.0842 23.2092 42.0159 22.9642 42.0179 22.6742L42.0783 14.0494C42.0787 13.9894 42.0791 13.9344 42.0795 13.8844C42.0899 13.8244 42.1003 13.7644 42.1107 13.7044C42.1312 13.6444 42.1465 13.5894 42.1569 13.5394C42.1673 13.4794 42.1827 13.4244 42.2031 13.3744C42.2338 13.2744 42.2843 13.1994 42.3546 13.1494C42.405 13.0994 42.4553 13.0594 42.5055 13.0294C42.5557 12.9994 42.6108 12.9794 42.6709 12.9694C42.721 12.9594 42.776 12.9544 42.836 12.9544C42.8961 12.9444 42.9561 12.9394 43.0161 12.9394C43.1661 12.9394 43.3108 12.9844 43.4502 13.0744C43.5099 13.1144 43.5646 13.1594 43.6142 13.2094C43.6639 13.2494 43.7035 13.3094 43.7329 13.3894C43.8116 13.5794 43.8504 13.7594 43.8492 13.9294C43.8588 13.9794 43.8633 14.0544 43.8626 14.1544C43.872 14.2444 43.8763 14.3394 43.8756 14.4394C43.8749 14.5394 43.8742 14.6394 43.8735 14.7394C43.8829 14.8294 43.8874 14.8994 43.887 14.9494L43.8865 15.0244C43.8943 15.3444 43.897 15.6694 43.8947 15.9994C43.8924 16.3293 43.89 16.6643 43.8876 17.0043L43.8858 17.2593C44.3068 17.1193 44.7473 17.0543 45.2072 17.0643C45.6672 17.0643 46.0766 17.1543 46.4353 17.3343C46.804 17.5243 47.0825 17.7393 47.2708 17.9793C47.4691 18.2193 47.6123 18.4843 47.7002 18.7743C47.7882 19.0643 47.836 19.3743 47.8437 19.7043C47.8614 20.0343 47.874 20.3792 47.8815 20.7392ZM51.0538 16.9143C51.3849 16.7543 51.7307 16.6393 52.0912 16.5693C52.4517 16.4993 52.8068 16.4843 53.1565 16.5243C53.5163 16.5643 53.8606 16.6593 54.1895 16.8093C54.5285 16.9593 54.837 17.1693 55.1151 17.4393C55.3435 17.6693 55.5416 17.9493 55.7092 18.2793C55.877 18.5993 55.9998 18.9143 56.0776 19.2243C56.2438 19.7743 56.2649 20.3292 56.141 20.8892C56.017 21.4492 55.8084 21.9692 55.515 22.4492C55.3735 22.6692 55.1971 22.8692 54.9858 23.0492C54.7846 23.2192 54.5687 23.3592 54.3379 23.4692C54.0369 23.6092 53.7112 23.7042 53.3609 23.7542C53.0105 23.8142 52.6704 23.8292 52.3406 23.7992C51.7408 23.7692 51.2118 23.6192 50.7537 23.3492C50.3056 23.0792 49.943 22.7342 49.666 22.3142C49.3989 21.8942 49.2223 21.4192 49.136 20.8892C49.0597 20.3492 49.0986 19.7993 49.2525 19.2393C49.4167 18.6393 49.6501 18.1543 49.9527 17.7843C50.2654 17.4043 50.6324 17.1143 51.0538 16.9143ZM51.4897 18.9243C51.3387 19.0643 51.2225 19.2393 51.1411 19.4493C51.0596 19.6593 51.008 19.8793 50.9864 20.1093C50.9649 20.3292 50.9783 20.5542 51.0267 20.7842C51.0852 21.0042 51.1738 21.2042 51.2925 21.3842C51.3914 21.5342 51.5706 21.6592 51.8299 21.7592C52.0892 21.8592 52.3587 21.9192 52.6386 21.9392C52.9585 21.9592 53.2391 21.8742 53.4804 21.6842C53.7218 21.4842 53.9035 21.2392 54.0255 20.9492C54.1576 20.6592 54.2198 20.3442 54.2122 20.0043C54.2045 19.6643 54.1167 19.3543 53.9487 19.0743C53.8301 18.8743 53.6611 18.7293 53.4417 18.6393C53.2324 18.5393 53.0078 18.4893 52.7678 18.4893C52.5378 18.4793 52.3076 18.5143 52.077 18.5943C51.8465 18.6643 51.6508 18.7743 51.4897 18.9243ZM57.4441 18.3393C57.4457 18.1093 57.4425 17.8643 57.4343 17.6043C57.4361 17.3443 57.4828 17.1093 57.5742 16.8993C57.6556 16.7093 57.7865 16.5743 57.9671 16.4943C58.1577 16.4043 58.3428 16.3843 58.5225 16.4343C58.7023 16.4643 58.8419 16.5193 58.9413 16.5993C59.0408 16.6793 59.1101 16.7743 59.1493 16.8843C59.1986 16.9843 59.2278 17.1043 59.2368 17.2443C59.2459 17.3743 59.255 17.5043 59.2641 17.6343C59.3653 17.4543 59.4914 17.3093 59.6421 17.1993C59.7929 17.0893 59.9485 16.9993 60.109 16.9293C60.2695 16.8593 60.4199 16.8093 60.5601 16.7793C60.7103 16.7493 60.8254 16.7343 60.9054 16.7343C61.2854 16.7343 61.6598 16.8193 62.0286 16.9893C62.4075 17.1493 62.7209 17.3793 62.9688 17.6793C63.1075 17.8593 63.2112 18.0493 63.2798 18.2493C63.3584 18.4393 63.412 18.6393 63.4406 18.8493C63.4791 19.0593 63.5026 19.2743 63.511 19.4943C63.5196 19.7043 63.5281 19.9193 63.5365 20.1392C63.582 20.7792 63.5776 21.4142 63.5232 22.0442C63.5123 22.1742 63.5062 22.3242 63.505 22.4942C63.5038 22.6642 63.4877 22.8342 63.4565 23.0042C63.4353 23.1642 63.3893 23.3092 63.3184 23.4392C63.2576 23.5592 63.152 23.6342 63.0018 23.6642C62.7915 23.7142 62.6164 23.7242 62.4766 23.6942C62.3468 23.6742 62.2421 23.6292 62.1626 23.5592C62.0831 23.4892 62.0237 23.3992 61.9845 23.2892C61.9452 23.1792 61.9111 23.0542 61.8821 22.9142C61.8629 22.8042 61.8437 22.6792 61.8247 22.5392C61.8158 22.3892 61.8068 22.2392 61.7979 22.0892C61.7989 21.9392 61.7949 21.7942 61.7859 21.6542C61.787 21.5042 61.7879 21.3692 61.7888 21.2492C61.7901 21.0592 61.7866 20.8492 61.7782 20.6192C61.7698 20.3892 61.7713 20.1742 61.7827 19.9743C61.786 19.5043 61.6635 19.1493 61.4151 18.9093C61.1769 18.6593 60.8476 18.5543 60.4274 18.5943C60.1071 18.6343 59.8262 18.7643 59.5846 18.9843C59.3431 19.1943 59.2262 19.4693 59.2338 19.8093C59.2329 19.9393 59.2321 20.0593 59.2313 20.1692C59.2305 20.2792 59.2248 20.3892 59.214 20.4992C59.2132 20.6092 59.2124 20.7292 59.2115 20.8592C59.2106 20.9892 59.2096 21.1342 59.2084 21.2942C59.2061 21.6242 59.2037 21.9742 59.2011 22.3442C59.1986 22.7042 59.1515 22.9992 59.0599 23.2292C58.9782 23.4692 58.842 23.6342 58.6514 23.7242C58.4608 23.8142 58.236 23.7892 57.9769 23.6492C57.8674 23.5892 57.7779 23.5092 57.7086 23.4092C57.6494 23.2992 57.6002 23.1842 57.561 23.0642C57.5319 22.9442 57.5127 22.8242 57.5036 22.7042C57.4945 22.5742 57.4853 22.4542 57.4761 22.3442C57.4484 22.0142 57.4305 21.7092 57.4225 21.4292C57.4245 21.1392 57.4267 20.8292 57.429 20.4992L57.4441 18.3393Z" fill="#69232C"/>
</svg>
