<svg width="83" height="44" viewBox="0 0 83 44" fill="none" xmlns="http://www.w3.org/2000/svg">
<rect width="77.9209" height="40.2311" transform="matrix(1 -5.49433e-10 0.0327008 0.999465 1.54907 1.49927)" fill="#A7777D" fill-opacity="0.14" stroke="#69232C" stroke-width="3" stroke-linecap="round" stroke-dasharray="6 6"/>
<path d="M29.2265 18.3574C29.2358 18.4574 29.2251 18.5524 29.1945 18.6424C29.1741 18.7024 29.1437 18.7524 29.1035 18.7924C29.0732 18.8324 29.0329 18.8724 28.9826 18.9124C28.8922 18.9724 28.7818 19.0274 28.6515 19.0774C28.5713 19.0974 28.4912 19.1124 28.4112 19.1224C28.341 19.1424 28.266 19.1424 28.1862 19.1224C28.0262 19.1124 27.8866 19.0524 27.7674 18.9424C27.5984 18.8024 27.4595 18.6474 27.3507 18.4774C27.3012 18.3974 27.2469 18.3074 27.1876 18.2074C27.1283 18.1075 27.074 18.0025 27.0248 17.8925L25.3819 14.7275C25.3019 14.7275 25.2219 14.7325 25.1418 14.7425C25.0618 14.7425 24.9818 14.7475 24.9017 14.7575C24.6916 14.7775 24.4916 14.7825 24.3016 14.7725C24.1217 14.7625 23.9317 14.7625 23.7316 14.7725L23.4466 14.7725L23.4276 17.4875C23.427 17.5675 23.4215 17.6425 23.411 17.7125C23.4105 17.7825 23.41 17.8575 23.4095 17.9375C23.4091 17.9875 23.4036 18.0525 23.3931 18.1325C23.3925 18.2124 23.387 18.2874 23.3765 18.3574C23.3557 18.4674 23.3099 18.5824 23.2391 18.7024C23.1683 18.8124 23.0727 18.9074 22.9521 18.9874C22.7412 19.1174 22.4859 19.1524 22.1864 19.0924C22.0566 19.0624 21.9319 19.0124 21.8124 18.9424C21.7726 18.9124 21.7379 18.8774 21.7081 18.8374C21.6785 18.7874 21.6538 18.7374 21.6342 18.6874C21.6145 18.6374 21.5949 18.5874 21.5752 18.5374C21.5657 18.4774 21.5511 18.4224 21.5314 18.3724C21.5021 18.2724 21.4878 18.1774 21.4884 18.0875L21.5481 9.56766C21.5485 9.50766 21.5489 9.44766 21.5493 9.38767C21.5598 9.31767 21.5702 9.25767 21.5806 9.20767C21.5914 9.09767 21.6271 8.98768 21.6879 8.87768C21.7188 8.75768 21.7693 8.67268 21.8397 8.62268C21.9001 8.56269 21.9905 8.51269 22.1107 8.47269C22.2411 8.42269 22.4262 8.40269 22.6662 8.41269C23.1161 8.42269 23.5611 8.42769 24.0011 8.42769C24.4411 8.42769 24.881 8.43769 25.3209 8.45769C25.6107 8.47769 25.9155 8.51269 26.2351 8.56269C26.5648 8.60268 26.8693 8.67768 27.1485 8.78768C27.3281 8.85768 27.4926 8.92768 27.6421 8.99767C27.8313 9.10767 27.9806 9.21267 28.0899 9.31267C28.4376 9.63266 28.6999 10.0176 28.8768 10.4676C29.0536 10.9176 29.1404 11.3726 29.1372 11.8326C29.1334 12.3726 29 12.8676 28.7368 13.3176C28.4837 13.7676 28.0763 14.1025 27.5148 14.3225C27.4946 14.3425 27.4645 14.3575 27.4245 14.3675C27.3945 14.3675 27.3694 14.3725 27.3494 14.3825L28.7099 17.1575L28.8432 17.3975C28.863 17.4375 28.8876 17.4825 28.9173 17.5325C28.9469 17.5825 28.9716 17.6325 28.9912 17.6825C29.0209 17.7325 29.0455 17.7875 29.0651 17.8475C29.0947 17.9075 29.1243 17.9625 29.1539 18.0125C29.1829 18.1525 29.2071 18.2674 29.2265 18.3574ZM25.5139 13.0176C25.6939 13.0176 25.8641 12.9876 26.0245 12.9276C26.195 12.8576 26.3457 12.7676 26.4764 12.6576C26.6172 12.5476 26.7331 12.4226 26.8241 12.2826C26.9151 12.1326 26.9662 11.9726 26.9774 11.8026C27.0209 11.3026 26.8935 10.9326 26.5952 10.6926C26.2969 10.4426 25.9029 10.3076 25.413 10.2876C25.1232 10.2676 24.8032 10.2576 24.4532 10.2576C24.1132 10.2576 23.7882 10.2576 23.4782 10.2576C23.4854 10.6676 23.4824 11.0876 23.4694 11.5176C23.4665 11.9376 23.463 12.4376 23.4589 13.0176L25.5139 13.0176ZM35.6365 16.9625C35.7567 16.9325 35.8768 16.9125 35.9969 16.9025C36.127 16.8925 36.2419 16.9075 36.3416 16.9475C36.4513 16.9875 36.5408 17.0575 36.6101 17.1575C36.6795 17.2475 36.7136 17.3775 36.7124 17.5475C36.7115 17.6675 36.6807 17.7825 36.62 17.8925C36.5592 18.0025 36.4835 18.1025 36.3929 18.1924C36.3022 18.2824 36.2017 18.3624 36.0912 18.4324C35.9808 18.4924 35.8754 18.5424 35.7751 18.5824C35.4842 18.7124 35.1485 18.8124 34.768 18.8824C34.3975 18.9524 34.0124 18.9774 33.6125 18.9574C33.0726 18.9374 32.5534 18.8324 32.0547 18.6424C31.5661 18.4424 31.1834 18.1175 30.9065 17.6675C30.6496 17.2275 30.4981 16.7375 30.4518 16.1975C30.4056 15.6575 30.4342 15.1475 30.5376 14.6675C30.6516 14.0876 30.8399 13.6176 31.1024 13.2576C31.375 12.8876 31.6971 12.5926 32.0686 12.3726C32.5204 12.1126 33.0264 11.9776 33.5865 11.9676C34.1465 11.9576 34.6808 12.0676 35.1892 12.2976C35.5281 12.4476 35.8317 12.6526 36.0998 12.9126C36.3681 13.1626 36.571 13.4676 36.7084 13.8276C36.7478 13.9176 36.777 14.0276 36.7961 14.1575C36.8252 14.2875 36.8442 14.4275 36.8532 14.5775C36.8622 14.7175 36.8612 14.8575 36.8502 14.9975C36.8393 15.1375 36.8134 15.2625 36.7726 15.3725C36.7114 15.5525 36.6354 15.6925 36.5447 15.7925C36.454 15.8925 36.3384 15.9675 36.1981 16.0175C36.0577 16.0675 35.8875 16.1025 35.6874 16.1225C35.4973 16.1325 35.2672 16.1425 34.9971 16.1525C34.7571 16.1625 34.532 16.1675 34.322 16.1675C34.112 16.1675 33.897 16.1675 33.677 16.1675C33.4571 16.1575 33.2271 16.1525 32.9871 16.1525C32.7572 16.1425 32.4973 16.1325 32.2074 16.1225C32.176 16.3225 32.1997 16.4975 32.2787 16.6475C32.3677 16.7875 32.4869 16.9075 32.6362 17.0075C32.7855 17.0975 32.955 17.1675 33.1447 17.2175C33.3343 17.2675 33.5191 17.2975 33.6991 17.3075C34.0389 17.3275 34.3641 17.3025 34.6746 17.2325C34.9851 17.1525 35.3058 17.0625 35.6365 16.9625ZM35.0119 14.0526C34.8234 13.8326 34.6245 13.6726 34.4152 13.5726C34.2557 13.5026 34.0859 13.4726 33.9059 13.4826C33.7359 13.4826 33.5707 13.5076 33.4103 13.5576C33.1198 13.6276 32.8738 13.7776 32.6722 14.0076C32.652 14.0276 32.6167 14.0776 32.5661 14.1575C32.5156 14.2275 32.4651 14.3025 32.4145 14.3825C32.374 14.4625 32.3435 14.5375 32.323 14.6075C32.3025 14.6775 32.3122 14.7125 32.3522 14.7125L35.2922 14.7125C35.2832 14.5725 35.259 14.4575 35.2197 14.3675C35.1804 14.2675 35.1111 14.1625 35.0119 14.0526ZM39.6874 12.7026C39.9884 12.5526 40.3042 12.4476 40.6346 12.3876C40.9651 12.3176 41.2902 12.3026 41.6099 12.3426C41.9397 12.3726 42.2541 12.4576 42.5531 12.5976C42.8522 12.7276 43.1309 12.9176 43.3891 13.1676C43.6473 13.4276 43.8453 13.7126 43.9831 14.0226C44.121 14.3325 44.2185 14.6775 44.2759 15.0575C44.3141 15.3175 44.3774 15.5575 44.4658 15.7775C44.5543 15.9975 44.6477 16.2175 44.7462 16.4375C44.8547 16.6575 44.9531 16.8775 45.0416 17.0975C45.14 17.3175 45.2184 17.5475 45.2768 17.7875C45.3251 18.0175 45.3036 18.2424 45.212 18.4624C45.1306 18.6724 44.9596 18.8024 44.6993 18.8524C44.5491 18.8824 44.4042 18.8724 44.2645 18.8224C44.1349 18.7624 44.0155 18.6824 43.9062 18.5824C43.797 18.4724 43.6978 18.3574 43.6086 18.2374C43.5295 18.1075 43.4554 17.9875 43.3861 17.8775C43.154 18.1774 42.9024 18.4124 42.6312 18.5824C42.3601 18.7424 42.0343 18.8474 41.654 18.8974C41.3337 18.9374 41.0286 18.9474 40.7388 18.9274C40.4489 18.9074 40.1393 18.8524 39.8099 18.7624C39.3807 18.6524 39.027 18.4624 38.7489 18.1924C38.4809 17.9125 38.2731 17.5925 38.1256 17.2325C37.9882 16.8625 37.916 16.4675 37.9089 16.0475C37.9019 15.6275 37.9548 15.2125 38.0677 14.8025C38.2114 14.2625 38.4245 13.8226 38.7069 13.4826C38.9893 13.1426 39.3161 12.8826 39.6874 12.7026ZM40.0501 14.4575C39.9091 14.5975 39.7979 14.7625 39.7166 14.9525C39.6353 15.1425 39.5839 15.3425 39.5624 15.5525C39.5509 15.7625 39.5695 15.9725 39.618 16.1825C39.6665 16.3925 39.7452 16.5775 39.8541 16.7375C39.9531 16.8775 40.1223 16.9975 40.3616 17.0975C40.601 17.1875 40.8506 17.2425 41.1104 17.2625C41.4103 17.2825 41.6708 17.2025 41.8921 17.0225C42.1234 16.8425 42.2949 16.6175 42.4068 16.3475C42.5288 16.0675 42.5859 15.7725 42.578 15.4625C42.5703 15.1425 42.4873 14.8525 42.3291 14.5925C42.2105 14.4025 42.0514 14.2625 41.8521 14.1725C41.6627 14.0826 41.458 14.0376 41.238 14.0376C41.0181 14.0276 40.7978 14.0626 40.5773 14.1425C40.3668 14.2125 40.1911 14.3175 40.0501 14.4575ZM52.1365 13.2426C52.2155 13.3826 52.2545 13.5326 52.2534 13.6926C52.2622 13.8526 52.2262 14.0026 52.1452 14.1425C52.054 14.3225 51.9231 14.4475 51.7526 14.5175C51.5922 14.5775 51.4121 14.5825 51.2125 14.5325C51.1226 14.5125 51.0429 14.4775 50.9732 14.4275C50.9036 14.3775 50.8289 14.3275 50.7493 14.2775C50.6797 14.2175 50.5951 14.1625 50.4954 14.1125C50.4058 14.0626 50.286 14.0276 50.1362 14.0076C49.9863 13.9876 49.8213 13.9876 49.6412 14.0076C49.471 14.0276 49.3157 14.0676 49.1753 14.1275C48.9545 14.2375 48.7784 14.4075 48.6467 14.6375C48.5152 14.8575 48.4285 15.0975 48.3867 15.3575C48.3449 15.6075 48.3482 15.8625 48.3963 16.1225C48.4545 16.3825 48.563 16.6025 48.7217 16.7825C48.8407 16.9225 48.9949 17.0375 49.1843 17.1275C49.3837 17.2175 49.5733 17.2725 49.7531 17.2925C49.923 17.3125 50.093 17.3125 50.2631 17.2925C50.4334 17.2625 50.5986 17.2225 50.759 17.1725C50.8793 17.1225 51.0148 17.0575 51.1654 16.9775C51.316 16.8875 51.4614 16.8325 51.6015 16.8125C51.7815 16.8125 51.9212 16.8625 52.0205 16.9625C52.1198 17.0525 52.189 17.1675 52.228 17.3075C52.2671 17.4375 52.2712 17.5775 52.2401 17.7275C52.2191 17.8775 52.1631 18.0075 52.0724 18.1175C51.9513 18.2674 51.7803 18.4124 51.5593 18.5524C51.3384 18.6824 51.1277 18.7774 50.9273 18.8374C50.6868 18.9174 50.4165 18.9624 50.1164 18.9724C49.8263 18.9824 49.5514 18.9724 49.2916 18.9424C49.1717 18.9224 49.0469 18.8974 48.9171 18.8674C48.7873 18.8374 48.6626 18.8024 48.5429 18.7624C48.104 18.6024 47.7355 18.3774 47.4376 18.0875C47.1497 17.7875 46.927 17.4525 46.7696 17.0825C46.6222 16.7125 46.54 16.3175 46.5229 15.8975C46.5059 15.4775 46.5588 15.0625 46.6816 14.6525C46.7944 14.2625 46.9317 13.9326 47.0936 13.6626C47.2655 13.3926 47.462 13.1726 47.6832 13.0026C47.9145 12.8226 48.1704 12.6826 48.4511 12.5826C48.7319 12.4726 49.0426 12.3776 49.3831 12.2976C49.7336 12.2276 50.1036 12.2276 50.4931 12.2976C50.8826 12.3676 51.2317 12.4976 51.5404 12.6876C51.7795 12.8176 51.9782 13.0026 52.1365 13.2426ZM59.442 12.4026C59.5207 12.5926 59.5242 12.8026 59.4526 13.0326C59.391 13.2626 59.2749 13.4126 59.1044 13.4826C59.0142 13.5226 58.8939 13.5576 58.7437 13.5876C58.5936 13.6076 58.4284 13.6276 58.2483 13.6476C58.0781 13.6676 57.908 13.6826 57.738 13.6926C57.5679 13.7026 57.4229 13.7076 57.3029 13.7076C57.3108 14.0076 57.3186 14.3175 57.3264 14.6375C57.3342 14.9475 57.342 15.2525 57.3499 15.5525C57.3578 15.8525 57.3608 16.1425 57.3589 16.4225C57.357 16.6925 57.3502 16.9375 57.3387 17.1575C57.3377 17.3075 57.3364 17.4825 57.335 17.6825C57.3337 17.8725 57.3174 18.0575 57.2861 18.2374C57.2649 18.4174 57.2288 18.5774 57.1778 18.7174C57.1269 18.8474 57.0513 18.9324 56.951 18.9724C56.6401 19.1024 56.3548 19.1374 56.0953 19.0774C55.8456 19.0274 55.6663 18.9224 55.5575 18.7624C55.4784 18.6324 55.4194 18.4824 55.3806 18.3124C55.3419 18.1325 55.3131 17.9525 55.2944 17.7725C55.2857 17.5825 55.282 17.4025 55.2832 17.2325C55.2944 17.0525 55.3005 16.8975 55.3014 16.7675C55.3144 16.3475 55.3227 15.8725 55.3264 15.3425C55.3402 14.8025 55.349 14.2625 55.3528 13.7226L55.1278 13.7226C55.0078 13.7226 54.8528 13.7226 54.6628 13.7226C54.4828 13.7126 54.2979 13.6976 54.1081 13.6776C53.9283 13.6476 53.7585 13.6126 53.5988 13.5726C53.4392 13.5226 53.3247 13.4526 53.2553 13.3626C53.1462 13.2326 53.0772 13.0926 53.0482 12.9426C53.0293 12.7926 53.0403 12.6526 53.0812 12.5226C53.1321 12.3826 53.208 12.2626 53.3087 12.1626C53.4095 12.0526 53.5249 11.9826 53.6552 11.9526C53.8355 11.9026 54.0907 11.8776 54.4207 11.8776C54.7508 11.8676 55.0608 11.8676 55.3507 11.8776C55.3414 11.7776 55.3371 11.6826 55.3377 11.5926C55.3384 11.4926 55.334 11.3976 55.3247 11.3076C55.3155 11.1876 55.3116 11.0376 55.3128 10.8576C55.3142 10.6676 55.3255 10.4826 55.3467 10.3026C55.378 10.1126 55.4243 9.93765 55.4854 9.77766C55.5466 9.60766 55.6325 9.47766 55.7431 9.38767C55.894 9.26767 56.0444 9.20267 56.1945 9.19267C56.3546 9.17267 56.4995 9.19267 56.6291 9.25267C56.7687 9.31267 56.883 9.40266 56.9722 9.52266C57.0714 9.63266 57.1405 9.75766 57.1796 9.89765C57.2087 10.0176 57.2327 10.1626 57.2515 10.3326C57.2704 10.4926 57.2792 10.6626 57.2779 10.8426C57.2867 11.0226 57.2904 11.2026 57.2892 11.3826C57.2879 11.5626 57.2867 11.7276 57.2857 11.8776L57.4357 11.8776C57.5857 11.8776 57.7607 11.8726 57.9608 11.8626C58.1609 11.8526 58.3558 11.8576 58.5457 11.8776C58.7455 11.8976 58.9252 11.9476 59.0846 12.0276C59.2441 12.0976 59.3633 12.2226 59.442 12.4026ZM28.0433 32.8771C28.0322 33.0471 28.0059 33.2271 27.9646 33.4171C27.9332 33.6071 27.8371 33.7621 27.6763 33.8821C27.5556 33.9821 27.4202 34.0421 27.27 34.0621C27.1199 34.0821 26.97 34.0721 26.8203 34.0321C26.6805 34.0021 26.5458 33.9521 26.4163 33.8821C26.2869 33.8021 26.1825 33.7071 26.1033 33.5971C25.7662 33.1771 25.4543 32.7471 25.1673 32.3071C24.8905 31.8571 24.6086 31.4071 24.3218 30.9571L23.0751 29.0522C22.907 28.7822 22.7291 28.4822 22.5414 28.1522C22.3538 27.8122 22.161 27.4972 21.9631 27.2072L21.8779 32.9371L21.877 33.0721C21.8759 33.2321 21.8447 33.3921 21.7836 33.5521C21.7326 33.7021 21.6417 33.8321 21.5109 33.9421C21.4103 34.0221 21.2799 34.0771 21.1197 34.1071C20.8694 34.1571 20.6595 34.1421 20.49 34.0621C20.3306 33.9821 20.2014 33.8721 20.1024 33.7321C20.0133 33.5921 19.9495 33.4321 19.9107 33.2521C19.882 33.0621 19.8783 32.8771 19.8996 32.6971L19.9014 32.4421L19.9396 31.2721L19.9698 29.0972C19.9821 28.7772 19.9893 28.4522 19.9916 28.1222C19.994 27.7822 19.9964 27.4372 19.9989 27.0872C19.9919 26.6572 19.9951 26.2023 20.0085 25.7223C20.0318 25.2423 20.055 24.7923 20.0779 24.3723C20.0995 24.1423 20.1559 23.9473 20.247 23.7873C20.288 23.6473 20.3938 23.5273 20.5645 23.4273C20.675 23.3573 20.8153 23.3123 20.9855 23.2923C21.1656 23.2723 21.3206 23.2773 21.4504 23.3073C21.5002 23.3273 21.5501 23.3523 21.5998 23.3823C21.6497 23.4023 21.6995 23.4273 21.7493 23.4573C21.799 23.4973 21.8438 23.5373 21.8835 23.5773C21.9332 23.6173 21.9779 23.6623 22.0175 23.7123C22.0672 23.7623 22.1118 23.8173 22.1514 23.8773C22.191 23.9273 22.2307 23.9773 22.2703 24.0273C22.2999 24.0873 22.3295 24.1423 22.3592 24.1923C22.3888 24.2423 22.4235 24.2923 22.4631 24.3423L22.6264 24.5823L26.0532 30.0422L26.0601 29.0522C26.0624 28.7322 26.0597 28.4072 26.052 28.0772C26.0543 27.7372 26.0518 27.3872 26.0443 27.0272C26.0473 26.6072 26.0504 26.1573 26.0538 25.6773C26.0671 25.1973 26.0853 24.7473 26.1082 24.3273C26.1094 24.1573 26.1608 23.9623 26.2623 23.7423C26.3132 23.6123 26.399 23.5073 26.5195 23.4273C26.6401 23.3473 26.7755 23.2923 26.9257 23.2623C27.0759 23.2323 27.2259 23.2323 27.3757 23.2623C27.5255 23.2923 27.6551 23.3523 27.7644 23.4423C27.7942 23.4723 27.824 23.5073 27.8537 23.5473C27.8834 23.5873 27.9081 23.6323 27.9277 23.6823C27.9768 23.8123 28.006 23.9273 28.0153 24.0273C28.0443 24.1673 28.0585 24.2923 28.0577 24.4023C28.0489 25.6523 28.04 26.9272 28.0309 28.2272C28.0318 29.5272 28.0329 30.8021 28.0341 32.0521C28.0331 32.1921 28.0372 32.3321 28.0462 32.4721C28.0553 32.6021 28.0543 32.7371 28.0433 32.8771ZM31.0496 27.7022C31.3506 27.5522 31.6664 27.4472 31.9968 27.3872C32.3273 27.3172 32.6524 27.3022 32.9721 27.3422C33.3019 27.3722 33.6163 27.4572 33.9153 27.5972C34.2144 27.7272 34.4931 27.9172 34.7513 28.1672C35.0095 28.4272 35.2075 28.7122 35.3453 29.0222C35.4832 29.3322 35.5808 29.6772 35.6381 30.0572C35.6763 30.3172 35.7396 30.5571 35.8281 30.7771C35.9165 30.9971 36.01 31.2171 36.1084 31.4371C36.2169 31.6571 36.3153 31.8771 36.4038 32.0971C36.5023 32.3171 36.5807 32.5471 36.639 32.7871C36.6874 33.0171 36.6658 33.2421 36.5742 33.4621C36.4928 33.6721 36.3219 33.8021 36.0615 33.8521C35.9113 33.8821 35.7664 33.8721 35.6267 33.8221C35.4971 33.7621 35.3777 33.6821 35.2684 33.5821C35.1592 33.4721 35.06 33.3571 34.9708 33.2371C34.8917 33.1071 34.8176 32.9871 34.7483 32.8771C34.5162 33.1771 34.2646 33.4121 33.9934 33.5821C33.7223 33.7421 33.3965 33.8471 33.0162 33.8971C32.6959 33.9371 32.3908 33.9471 32.101 33.9271C31.8111 33.9071 31.5015 33.8521 31.1721 33.7621C30.7429 33.6521 30.3892 33.4621 30.1111 33.1921C29.8431 32.9121 29.6353 32.5921 29.4879 32.2321C29.3505 31.8621 29.2782 31.4671 29.2712 31.0471C29.2641 30.6271 29.317 30.2122 29.4299 29.8022C29.5737 29.2622 29.7867 28.8222 30.0691 28.4822C30.3515 28.1422 30.6783 27.8822 31.0496 27.7022ZM31.4123 29.4572C31.2713 29.5972 31.1602 29.7622 31.0788 29.9522C30.9975 30.1422 30.9461 30.3422 30.9246 30.5521C30.9132 30.7621 30.9317 30.9721 30.9802 31.1821C31.0287 31.3921 31.1074 31.5771 31.2163 31.7371C31.3153 31.8771 31.4845 31.9971 31.7238 32.0971C31.9632 32.1871 32.2128 32.2421 32.4726 32.2621C32.7725 32.2821 33.0331 32.2021 33.2543 32.0221C33.4856 31.8421 33.6572 31.6171 33.7691 31.3471C33.891 31.0671 33.9481 30.7721 33.9403 30.4621C33.9325 30.1422 33.8495 29.8522 33.6914 29.5922C33.5727 29.4022 33.4137 29.2622 33.2143 29.1722C33.0249 29.0822 32.8202 29.0372 32.6002 29.0372C32.3803 29.0272 32.1601 29.0622 31.9395 29.1422C31.729 29.2122 31.5533 29.3172 31.4123 29.4572ZM42.5572 27.4022C42.6358 27.5922 42.6394 27.8022 42.5677 28.0322C42.5061 28.2622 42.3901 28.4122 42.2196 28.4822C42.1293 28.5222 42.0091 28.5572 41.8589 28.5872C41.7087 28.6072 41.5436 28.6272 41.3634 28.6472C41.1933 28.6672 41.0232 28.6822 40.8531 28.6922C40.6831 28.7022 40.538 28.7072 40.418 28.7072C40.4259 29.0072 40.4337 29.3172 40.4415 29.6372C40.4493 29.9472 40.4572 30.2522 40.4651 30.5521C40.473 30.8521 40.476 31.1421 40.474 31.4221C40.4721 31.6921 40.4654 31.9371 40.4539 32.1571C40.4528 32.3071 40.4516 32.4821 40.4502 32.6821C40.4488 32.8721 40.4325 33.0571 40.4013 33.2371C40.38 33.4171 40.3439 33.5771 40.2929 33.7171C40.242 33.8471 40.1664 33.9321 40.0661 33.9721C39.7552 34.1021 39.47 34.1371 39.2104 34.0771C38.9608 34.0271 38.7815 33.9221 38.6726 33.7621C38.5935 33.6321 38.5346 33.4821 38.4958 33.3121C38.457 33.1321 38.4283 32.9521 38.4095 32.7721C38.4009 32.5821 38.3971 32.4021 38.3983 32.2321C38.4096 32.0521 38.4157 31.8971 38.4166 31.7671C38.4295 31.3471 38.4379 30.8721 38.4416 30.3422C38.4553 29.8022 38.4641 29.2622 38.4679 28.7222L38.2429 28.7222C38.1229 28.7222 37.9679 28.7222 37.7779 28.7222C37.598 28.7122 37.4131 28.6972 37.2232 28.6772C37.0434 28.6472 36.8737 28.6122 36.714 28.5722C36.5543 28.5222 36.4398 28.4522 36.3704 28.3622C36.2613 28.2322 36.1923 28.0922 36.1634 27.9422C36.1444 27.7922 36.1554 27.6522 36.1963 27.5222C36.2473 27.3822 36.3231 27.2622 36.4238 27.1622C36.5246 27.0522 36.6401 26.9822 36.7703 26.9522C36.9507 26.9022 37.2058 26.8772 37.5358 26.8772C37.8659 26.8672 38.1759 26.8672 38.4658 26.8772C38.4565 26.7772 38.4522 26.6822 38.4528 26.5922C38.4535 26.4922 38.4492 26.3972 38.4398 26.3073C38.4307 26.1873 38.4267 26.0373 38.428 25.8573C38.4293 25.6673 38.4406 25.4823 38.4619 25.3023C38.4932 25.1123 38.5394 24.9373 38.6005 24.7773C38.6617 24.6073 38.7476 24.4773 38.8583 24.3873C39.0091 24.2673 39.1596 24.2023 39.3096 24.1923C39.4698 24.1723 39.6146 24.1923 39.7442 24.2523C39.8838 24.3123 39.9982 24.4023 40.0873 24.5223C40.1866 24.6323 40.2557 24.7573 40.2947 24.8973C40.3239 25.0173 40.3478 25.1623 40.3667 25.3323C40.3855 25.4923 40.3943 25.6623 40.3931 25.8423C40.4018 26.0223 40.4056 26.2023 40.4043 26.3822C40.403 26.5622 40.4019 26.7272 40.4008 26.8772L40.5508 26.8772C40.7008 26.8772 40.8759 26.8722 41.0759 26.8622C41.276 26.8522 41.471 26.8572 41.6608 26.8772C41.8607 26.8972 42.0403 26.9472 42.1998 27.0272C42.3593 27.0972 42.4784 27.2222 42.5572 27.4022ZM45.7114 28.3322C45.7095 28.6122 45.7073 28.9272 45.7048 29.2772C45.7124 29.6272 45.7148 29.9922 45.7121 30.3722C45.7095 30.7421 45.707 31.1121 45.7044 31.4821C45.7018 31.8421 45.6945 32.1771 45.6823 32.4871C45.6713 32.6371 45.6551 32.8021 45.6339 32.9821C45.6127 33.1521 45.5715 33.3121 45.5105 33.4621C45.4494 33.6121 45.3536 33.7371 45.2229 33.8371C45.1022 33.9271 44.937 33.9671 44.727 33.9571C44.4172 33.9371 44.1931 33.8021 44.0549 33.5521C43.9266 33.3021 43.8541 32.9521 43.8372 32.5021C43.8388 32.2721 43.8357 32.0071 43.8278 31.7071C43.8299 31.4071 43.827 31.1021 43.8192 30.7921C43.8214 30.4821 43.8235 30.1822 43.8255 29.8922C43.8276 29.5922 43.8295 29.3222 43.8312 29.0822C43.8322 28.9422 43.8283 28.7722 43.8197 28.5722C43.8211 28.3722 43.8276 28.1672 43.8391 27.9572C43.8505 27.7472 43.8769 27.5472 43.9183 27.3572C43.9597 27.1572 44.0258 26.9922 44.1167 26.8622C44.1873 26.7822 44.2877 26.7222 44.418 26.6822C44.5483 26.6322 44.6835 26.6072 44.8235 26.6072C44.9735 26.6072 45.1133 26.6322 45.243 26.6822C45.3826 26.7322 45.4821 26.8022 45.5415 26.8922C45.5811 26.9522 45.6105 27.0372 45.6297 27.1472C45.649 27.2572 45.6631 27.3822 45.6721 27.5222C45.6912 27.6522 45.7002 27.7922 45.6992 27.9422C45.7082 28.0822 45.7123 28.2122 45.7114 28.3322ZM45.1626 25.3023C44.8521 25.3823 44.5923 25.3523 44.3833 25.2123C44.1843 25.0623 44.0609 24.8423 44.0129 24.5523C43.9744 24.3423 43.9907 24.1573 44.0618 23.9973C44.1329 23.8373 44.2388 23.7173 44.3793 23.6373C44.5199 23.5473 44.6802 23.5073 44.8602 23.5173C45.0401 23.5273 45.2196 23.5973 45.3987 23.7273C45.5678 23.8473 45.6869 23.9873 45.7557 24.1473C45.8346 24.3073 45.8585 24.4623 45.8275 24.6123C45.8064 24.7623 45.7405 24.9023 45.6295 25.0323C45.5187 25.1523 45.3631 25.2423 45.1626 25.3023ZM53.7106 27.4472C53.7498 27.5672 53.7588 27.7022 53.7378 27.8522C53.7167 28.0022 53.6807 28.1572 53.6295 28.3172C53.5785 28.4672 53.5174 28.6172 53.4464 28.7672C53.3854 28.9072 53.3295 29.0322 53.2788 29.1422C53.015 29.6722 52.7664 30.1922 52.5328 30.7021C52.2993 31.2121 52.0254 31.7671 51.7112 32.3671C51.6503 32.4871 51.5793 32.6321 51.4981 32.8021C51.427 32.9621 51.3459 33.1221 51.2548 33.2821C51.1637 33.4321 51.0627 33.5721 50.9518 33.7021C50.8509 33.8321 50.7402 33.9271 50.6198 33.9871C50.5194 34.0471 50.4192 34.0721 50.3193 34.0621C50.2392 34.0821 50.1493 34.0571 50.0498 33.9871C49.9302 33.9271 49.8159 33.8321 49.7068 33.7021C49.6077 33.5721 49.5137 33.4321 49.4248 33.2821C49.3359 33.1221 49.252 32.9621 49.1731 32.8021C49.1043 32.6321 49.0403 32.4871 48.9812 32.3671C48.8628 32.1371 48.7493 31.9221 48.6407 31.7221C48.5421 31.5221 48.4336 31.3071 48.3152 31.0771C48.2069 30.8371 48.0838 30.5671 47.9459 30.2672C47.8081 29.9572 47.6457 29.5822 47.4588 29.1422C47.4096 29.0222 47.3555 28.8972 47.2964 28.7672C47.2373 28.6372 47.1833 28.4972 47.1343 28.3472C47.0954 28.1972 47.0664 28.0472 47.0475 27.8972C47.0386 27.7372 47.0497 27.5772 47.0808 27.4172C47.1119 27.2672 47.1877 27.1472 47.3084 27.0572C47.429 26.9672 47.5644 26.9072 47.7146 26.8772C47.8648 26.8472 48.0148 26.8522 48.1645 26.8922C48.3143 26.9222 48.4339 26.9872 48.5232 27.0872C48.6125 27.1772 48.6967 27.2972 48.7756 27.4472C48.8546 27.5972 48.9285 27.7572 48.9973 27.9272C49.0761 28.0872 49.145 28.2522 49.2038 28.4222C49.2727 28.5822 49.3367 28.7222 49.3959 28.8422C49.5338 29.1322 49.6866 29.4472 49.8542 29.7872C50.0319 30.1272 50.1897 30.4421 50.3276 30.7321C50.4292 30.5021 50.5206 30.3122 50.6016 30.1622C50.6827 30.0022 50.7588 29.8472 50.8299 29.6972C50.9109 29.5472 50.9921 29.3822 51.0733 29.2022C51.1646 29.0222 51.2762 28.7922 51.4082 28.5122C51.53 28.2522 51.6518 27.9972 51.7735 27.7472C51.9053 27.4972 52.0618 27.2772 52.2432 27.0872C52.3339 26.9872 52.4493 26.9222 52.5895 26.8922C52.7298 26.8522 52.8748 26.8472 53.0246 26.8772C53.1744 26.9072 53.309 26.9722 53.4283 27.0722C53.5576 27.1622 53.6518 27.2872 53.7106 27.4472ZM59.6647 31.9621C59.7849 31.9321 59.9051 31.9121 60.0251 31.9021C60.1552 31.8921 60.2701 31.9071 60.3698 31.9471C60.4795 31.9871 60.569 32.0571 60.6383 32.1571C60.7077 32.2471 60.7418 32.3771 60.7406 32.5471C60.7398 32.6671 60.709 32.7821 60.6482 32.8921C60.5874 33.0021 60.5117 33.1021 60.4211 33.1921C60.3305 33.2821 60.2299 33.3621 60.1194 33.4321C60.009 33.4921 59.9036 33.5421 59.8034 33.5821C59.5125 33.7121 59.1768 33.8121 58.7963 33.8821C58.4258 33.9521 58.0406 33.9771 57.6407 33.9571C57.1009 33.9371 56.5816 33.8321 56.0829 33.6421C55.5943 33.4421 55.2116 33.1171 54.9348 32.6671C54.6779 32.2271 54.5263 31.7371 54.4801 31.1971C54.4339 30.6571 54.4624 30.1472 54.5658 29.6672C54.6798 29.0872 54.8681 28.6172 55.1307 28.2572C55.4033 27.8872 55.7253 27.5922 56.0969 27.3722C56.5487 27.1122 57.0546 26.9772 57.6147 26.9672C58.1748 26.9572 58.709 27.0672 59.2174 27.2972C59.5563 27.4472 59.8599 27.6522 60.1281 27.9122C60.3963 28.1622 60.5992 28.4672 60.7367 28.8272C60.776 28.9172 60.8053 29.0272 60.8244 29.1572C60.8534 29.2872 60.8725 29.4272 60.8814 29.5772C60.8904 29.7172 60.8895 29.8572 60.8785 29.9972C60.8675 30.1372 60.8416 30.2622 60.8008 30.3722C60.7396 30.5521 60.6636 30.6921 60.5729 30.7921C60.4822 30.8921 60.3667 30.9671 60.2263 31.0171C60.086 31.0671 59.9157 31.1021 59.7156 31.1221C59.5255 31.1321 59.2955 31.1421 59.0254 31.1521C58.7853 31.1621 58.5603 31.1671 58.3503 31.1671C58.1403 31.1671 57.9253 31.1671 57.7053 31.1671C57.4853 31.1571 57.2554 31.1521 57.0154 31.1521C56.7855 31.1421 56.5255 31.1321 56.2356 31.1221C56.2042 31.3221 56.228 31.4971 56.3069 31.6471C56.3959 31.7871 56.5151 31.9071 56.6644 32.0071C56.8138 32.0971 56.9833 32.1671 57.1729 32.2171C57.3626 32.2671 57.5474 32.2971 57.7273 32.3071C58.0672 32.3271 58.3923 32.3021 58.7028 32.2321C59.0134 32.1521 59.334 32.0621 59.6647 31.9621ZM59.0401 29.0522C58.8516 28.8322 58.6528 28.6722 58.4435 28.5722C58.2839 28.5022 58.1142 28.4722 57.9341 28.4822C57.7641 28.4822 57.5989 28.5072 57.4386 28.5572C57.1481 28.6272 56.902 28.7772 56.7004 29.0072C56.6803 29.0272 56.6449 29.0772 56.5944 29.1572C56.5439 29.2272 56.4933 29.3022 56.4428 29.3822C56.4022 29.4622 56.3717 29.5372 56.3512 29.6072C56.3307 29.6772 56.3405 29.7122 56.3805 29.7122L59.3205 29.7122C59.3115 29.5722 59.2873 29.4572 59.2479 29.3672C59.2086 29.2672 59.1393 29.1622 59.0401 29.0522Z" fill="#69232C"/>
</svg>
