<svg width="82" height="38" viewBox="0 0 82 38" fill="none" xmlns="http://www.w3.org/2000/svg">
<rect x="1.5" y="1.5" width="78.0181" height="34.0977" fill="#A7777D" fill-opacity="0.14" stroke="#69232C" stroke-width="3" stroke-linecap="round" stroke-dasharray="6 6"/>
<path d="M35.9048 13.5998C35.9532 13.8298 35.9566 14.0648 35.9149 14.3048C35.8833 14.5348 35.8368 14.7448 35.7755 14.9348C35.6527 15.3248 35.5097 15.7598 35.3463 16.2398C35.183 16.7197 35.0196 17.1997 34.8563 17.6797C34.6929 18.1597 34.5347 18.6147 34.3817 19.0447C34.2288 19.4647 34.1013 19.8147 33.9993 20.0947C33.8975 20.3547 33.7904 20.6497 33.6781 20.9796C33.5658 21.3096 33.4286 21.6346 33.2663 21.9546C33.1141 22.2646 32.9321 22.5496 32.7203 22.8096C32.5185 23.0696 32.2722 23.2596 31.9813 23.3796C31.6905 23.4996 31.4253 23.5296 31.1857 23.4696C30.9462 23.3996 30.732 23.2796 30.5432 23.1096C30.3545 22.9296 30.181 22.7096 30.0228 22.4496C29.8747 22.1796 29.7417 21.9046 29.6236 21.6246C29.5056 21.3446 29.3975 21.0746 29.2993 20.8146C29.2012 20.5447 29.1128 20.3147 29.0341 20.1247C28.7289 19.4447 28.4539 18.7247 28.2093 17.9647C27.9646 17.2047 27.7147 16.4798 27.4595 15.7898C27.3909 15.5898 27.3126 15.3498 27.2245 15.0698C27.1366 14.7798 27.0786 14.4948 27.0505 14.2148C27.0326 13.9248 27.0694 13.6648 27.161 13.4348C27.2527 13.1948 27.4438 13.0298 27.7345 12.9398C27.7946 12.9198 27.8547 12.9048 27.9148 12.8948C27.9849 12.8748 28.05 12.8598 28.1101 12.8498C28.1801 12.8498 28.245 12.8548 28.305 12.8648C28.3649 12.8748 28.4297 12.8998 28.4995 12.9398C28.5493 12.9598 28.5991 12.9848 28.6489 13.0148C28.6988 13.0348 28.7436 13.0648 28.7833 13.1048C28.8229 13.1548 28.8576 13.2048 28.8872 13.2548C28.9269 13.3048 28.9665 13.3548 29.0062 13.4048C29.0357 13.4748 29.0603 13.5398 29.0798 13.5998C29.1095 13.6498 29.1341 13.6998 29.1538 13.7498C29.1733 13.8198 29.1978 13.8848 29.2274 13.9448C29.2571 13.9948 29.2817 14.0448 29.3014 14.0948L29.3896 14.3498L31.5064 20.5147L33.6795 14.3648L33.7863 14.1098C33.8066 14.0598 33.827 14.0098 33.8473 13.9598C33.8677 13.8998 33.8882 13.8348 33.9087 13.7648C33.929 13.7148 33.9494 13.6648 33.9697 13.6148C34.0001 13.5548 34.0356 13.4948 34.076 13.4348C34.1063 13.3848 34.1367 13.3348 34.167 13.2848C34.2075 13.2248 34.2478 13.1698 34.2882 13.1198C34.3185 13.0798 34.3537 13.0448 34.3939 13.0148C34.4441 12.9848 34.4893 12.9598 34.5295 12.9398C34.6097 12.8998 34.6799 12.8748 34.74 12.8648C34.81 12.8548 34.8701 12.8498 34.9201 12.8498C34.98 12.8598 35.0399 12.8748 35.0998 12.8948C35.1697 12.9048 35.2346 12.9198 35.2945 12.9398C35.4841 12.9898 35.6235 13.0748 35.7127 13.1948C35.8118 13.3148 35.8759 13.4498 35.9048 13.5998ZM39.0077 17.8147C39.0058 18.0947 39.0036 18.4097 39.0011 18.7597C39.0087 19.1097 39.0111 19.4747 39.0084 19.8547C39.0058 20.2247 39.0033 20.5947 39.0007 20.9646C38.9981 21.3246 38.9908 21.6596 38.9786 21.9696C38.9676 22.1196 38.9514 22.2846 38.9302 22.4646C38.909 22.6346 38.8678 22.7946 38.8068 22.9446C38.7457 23.0946 38.6499 23.2196 38.5192 23.3196C38.3985 23.4096 38.2333 23.4496 38.0233 23.4396C37.7135 23.4196 37.4894 23.2846 37.3512 23.0346C37.2229 22.7846 37.1504 22.4346 37.1335 21.9846C37.1351 21.7546 37.132 21.4896 37.1241 21.1896C37.1262 20.8896 37.1233 20.5847 37.1155 20.2747C37.1177 19.9647 37.1198 19.6647 37.1218 19.3747C37.1239 19.0747 37.1258 18.8047 37.1275 18.5647C37.1285 18.4247 37.1246 18.2547 37.116 18.0547C37.1174 17.8547 37.1239 17.6497 37.1354 17.4397C37.1468 17.2297 37.1732 17.0297 37.2146 16.8397C37.256 16.6398 37.3221 16.4748 37.413 16.3448C37.4836 16.2648 37.584 16.2048 37.7143 16.1648C37.8446 16.1148 37.9798 16.0898 38.1198 16.0898C38.2698 16.0898 38.4096 16.1148 38.5393 16.1648C38.6789 16.2148 38.7784 16.2848 38.8378 16.3748C38.8774 16.4348 38.9068 16.5198 38.926 16.6298C38.9453 16.7397 38.9594 16.8647 38.9684 17.0047C38.9875 17.1347 38.9965 17.2747 38.9955 17.4247C39.0045 17.5647 39.0086 17.6947 39.0077 17.8147ZM38.459 14.7848C38.1484 14.8648 37.8886 14.8348 37.6796 14.6948C37.4806 14.5448 37.3572 14.3248 37.3092 14.0348C37.2707 13.8248 37.287 13.6398 37.3581 13.4798C37.4292 13.3198 37.5351 13.1998 37.6756 13.1198C37.8162 13.0298 37.9765 12.9898 38.1565 12.9998C38.3364 13.0098 38.5159 13.0798 38.695 13.2098C38.8641 13.3298 38.9832 13.4698 39.052 13.6298C39.1309 13.7898 39.1548 13.9448 39.1238 14.0948C39.1027 14.2448 39.0368 14.3848 38.9258 14.5148C38.815 14.6348 38.6594 14.7248 38.459 14.7848ZM46.7373 16.8847C46.8159 17.0747 46.8194 17.2847 46.7478 17.5147C46.6862 17.7447 46.5702 17.8947 46.3997 17.9647C46.3094 18.0047 46.1892 18.0397 46.039 18.0697C45.8888 18.0897 45.7237 18.1097 45.5435 18.1297C45.3734 18.1497 45.2033 18.1647 45.0332 18.1747C44.8631 18.1847 44.7181 18.1897 44.5981 18.1897C44.606 18.4897 44.6138 18.7997 44.6216 19.1197C44.6294 19.4297 44.6373 19.7347 44.6452 20.0347C44.6531 20.3347 44.6561 20.6247 44.6541 20.9046C44.6522 21.1746 44.6455 21.4196 44.6339 21.6396C44.6329 21.7896 44.6317 21.9646 44.6303 22.1646C44.6289 22.3546 44.6126 22.5396 44.5814 22.7196C44.5601 22.8996 44.524 23.0596 44.473 23.1996C44.4221 23.3296 44.3465 23.4146 44.2462 23.4546C43.9353 23.5846 43.6501 23.6196 43.3905 23.5596C43.1408 23.5096 42.9616 23.4046 42.8527 23.2446C42.7736 23.1146 42.7147 22.9646 42.6759 22.7946C42.6371 22.6146 42.6084 22.4346 42.5896 22.2546C42.581 22.0646 42.5772 21.8846 42.5784 21.7146C42.5897 21.5346 42.5958 21.3796 42.5967 21.2496C42.6096 20.8296 42.6179 20.3547 42.6217 19.8247C42.6354 19.2847 42.6442 18.7447 42.648 18.2047L42.423 18.2047C42.303 18.2047 42.148 18.2047 41.958 18.2047C41.7781 18.1947 41.5932 18.1797 41.4033 18.1597C41.2235 18.1297 41.0538 18.0947 40.8941 18.0547C40.7344 18.0047 40.6199 17.9347 40.5505 17.8447C40.4414 17.7147 40.3724 17.5747 40.3435 17.4247C40.3245 17.2747 40.3355 17.1347 40.3764 17.0047C40.4274 16.8647 40.5032 16.7447 40.6039 16.6448C40.7047 16.5348 40.8202 16.4648 40.9504 16.4348C41.1308 16.3848 41.3859 16.3598 41.7159 16.3598C42.046 16.3498 42.356 16.3498 42.6459 16.3598C42.6366 16.2598 42.6323 16.1648 42.6329 16.0748C42.6336 15.9748 42.6293 15.8798 42.6199 15.7898C42.6108 15.6698 42.6068 15.5198 42.6081 15.3398C42.6094 15.1498 42.6207 14.9648 42.642 14.7848C42.6733 14.5948 42.7195 14.4198 42.7806 14.2598C42.8418 14.0898 42.9277 13.9598 43.0384 13.8698C43.1892 13.7498 43.3397 13.6848 43.4897 13.6748C43.6499 13.6548 43.7947 13.6748 43.9243 13.7348C44.0639 13.7948 44.1783 13.8848 44.2674 14.0048C44.3667 14.1148 44.4358 14.2398 44.4748 14.3798C44.504 14.4998 44.5279 14.6448 44.5467 14.8148C44.5656 14.9748 44.5744 15.1448 44.5732 15.3248C44.5819 15.5048 44.5857 15.6848 44.5844 15.8648C44.5831 16.0448 44.582 16.2098 44.5809 16.3598L44.7309 16.3598C44.8809 16.3598 45.056 16.3548 45.256 16.3448C45.4561 16.3348 45.6511 16.3398 45.8409 16.3598C46.0408 16.3798 46.2204 16.4298 46.3799 16.5098C46.5394 16.5798 46.6585 16.7047 46.7373 16.8847ZM52.5655 21.4446C52.6857 21.4146 52.8059 21.3946 52.9259 21.3846C53.056 21.3746 53.1709 21.3896 53.2706 21.4296C53.3803 21.4696 53.4698 21.5396 53.5391 21.6396C53.6085 21.7296 53.6426 21.8596 53.6414 22.0296C53.6406 22.1496 53.6098 22.2646 53.549 22.3746C53.4882 22.4846 53.4125 22.5846 53.3219 22.6746C53.2313 22.7646 53.1307 22.8446 53.0202 22.9146C52.9098 22.9746 52.8044 23.0246 52.7042 23.0646C52.4132 23.1946 52.0775 23.2946 51.6971 23.3646C51.3266 23.4346 50.9414 23.4596 50.5415 23.4396C50.0017 23.4196 49.4824 23.3146 48.9837 23.1246C48.4951 22.9246 48.1124 22.5996 47.8356 22.1496C47.5786 21.7096 47.4271 21.2196 47.3809 20.6797C47.3346 20.1397 47.3632 19.6297 47.4666 19.1497C47.5806 18.5697 47.7689 18.0997 48.0315 17.7397C48.304 17.3697 48.6261 17.0747 48.9977 16.8547C49.4495 16.5948 49.9554 16.4598 50.5155 16.4498C51.0756 16.4398 51.6098 16.5498 52.1182 16.7797C52.4571 16.9297 52.7607 17.1347 53.0289 17.3947C53.2971 17.6447 53.5 17.9497 53.6375 18.3097C53.6768 18.3997 53.7061 18.5097 53.7252 18.6397C53.7542 18.7697 53.7733 18.9097 53.7822 19.0597C53.7912 19.1997 53.7902 19.3397 53.7793 19.4797C53.7683 19.6197 53.7424 19.7447 53.7016 19.8547C53.6404 20.0347 53.5644 20.1747 53.4737 20.2747C53.383 20.3747 53.2675 20.4497 53.1271 20.4997C52.9868 20.5497 52.8165 20.5847 52.6164 20.6047C52.4263 20.6147 52.1962 20.6247 51.9262 20.6347C51.6861 20.6447 51.4611 20.6497 51.2511 20.6497C51.0411 20.6497 50.8261 20.6497 50.6061 20.6497C50.3861 20.6397 50.1562 20.6347 49.9162 20.6347C49.6862 20.6247 49.4263 20.6147 49.1364 20.6047C49.105 20.8046 49.1288 20.9796 49.2077 21.1296C49.2967 21.2696 49.4159 21.3896 49.5652 21.4896C49.7146 21.5796 49.8841 21.6496 50.0737 21.6996C50.2634 21.7496 50.4482 21.7796 50.6281 21.7896C50.9679 21.8096 51.2931 21.7846 51.6036 21.7146C51.9142 21.6346 52.2348 21.5446 52.5655 21.4446ZM51.9409 18.5347C51.7524 18.3147 51.5535 18.1547 51.3442 18.0547C51.1847 17.9847 51.015 17.9547 50.8349 17.9647C50.6649 17.9647 50.4997 17.9897 50.3394 18.0397C50.0489 18.1097 49.8028 18.2597 49.6012 18.4897C49.5811 18.5097 49.5457 18.5597 49.4952 18.6397C49.4447 18.7097 49.3941 18.7847 49.3436 18.8647C49.303 18.9447 49.2725 19.0197 49.252 19.0897C49.2315 19.1597 49.2413 19.1947 49.2813 19.1947L52.2213 19.1947C52.2122 19.0547 52.1881 18.9397 52.1487 18.8497C52.1094 18.7497 52.0401 18.6447 51.9409 18.5347Z" fill="#69232C"/>
</svg>
